<svg width="24" height="24" viewBox="0 0 24 24" fill="none" xmlns="http://www.w3.org/2000/svg">
<path d="M21.5802 17.924C21.2342 18.7051 20.8068 19.45 20.3045 20.147C19.6335 21.0751 19.0825 21.7165 18.6602 22.0734C18.0042 22.6567 17.2996 22.9568 16.5461 22.9738C16.0064 22.9738 15.3542 22.8249 14.5945 22.5224C13.8323 22.2211 13.1326 22.0734 12.4917 22.0734C11.8207 22.0734 11.101 22.2211 10.3301 22.5224C9.56044 22.8249 8.93822 22.9834 8.46217 22.998C7.74124 23.0282 7.0203 22.7209 6.30187 22.0734C5.84332 21.6862 5.26982 21.0207 4.58137 20.0792C3.84419 19.076 3.23821 17.9083 2.76342 16.5808C2.25489 15.1444 2 13.7552 2 12.4096C2 10.8691 2.3436 9.53923 3.03205 8.42593C3.55276 7.55159 4.29718 6.82187 5.1936 6.30705C6.07755 5.79356 7.08663 5.51708 8.11732 5.50596C8.69207 5.50596 9.44549 5.67779 10.3788 6.01662C11.3122 6.35545 11.9119 6.52728 12.1731 6.52728C12.3705 6.52728 13.0339 6.3252 14.1634 5.92465C15.2292 5.55315 16.1288 5.39947 16.866 5.45998C18.8651 5.61608 20.3657 6.37844 21.364 7.75312C19.5773 8.80227 18.6939 10.2701 18.7114 12.1543C18.7264 13.6221 19.2774 14.8431 20.357 15.8124C20.8342 16.2547 21.3911 16.6087 22 16.8567C21.8676 17.2282 21.7276 17.5828 21.5802 17.924V17.924ZM16.9984 0.461049C16.9984 1.61064 16.5636 2.68521 15.7003 3.67871C14.6557 4.85977 13.3938 5.54347 12.0256 5.43577C12.0077 5.29121 11.999 5.14573 11.9994 5.00014C11.9994 3.89531 12.4942 2.71426 13.3775 1.74739C13.8173 1.25851 14.3771 0.850701 15.0555 0.526394C15.7327 0.206927 16.3725 0.0302525 16.9747 0C16.9909 0.154893 16.9984 0.308576 16.9984 0.461049V0.461049Z" fill="white"/>
</svg>
