<svg width="20" height="20" viewBox="0 0 20 20" fill="none" xmlns="http://www.w3.org/2000/svg">
<path fill-rule="evenodd" clip-rule="evenodd" d="M15.7212 4.26977C16.0853 4.39727 16.3287 4.7406 16.3287 5.12643V10.7706C16.3287 12.3481 15.7553 13.8539 14.7428 15.0206C14.2337 15.6081 13.5895 16.0656 12.9053 16.4356L9.94033 18.0373L6.97033 16.4348C6.28533 16.0648 5.64033 15.6081 5.13033 15.0198C4.11699 13.8531 3.54199 12.3464 3.54199 10.7673V5.12643C3.54199 4.7406 3.78533 4.39727 4.14949 4.26977L9.63449 2.34227C9.82949 2.27393 10.042 2.27393 10.2362 2.34227L15.7212 4.26977Z" stroke="#200E32" stroke-linecap="round" stroke-linejoin="round"/>
<path d="M7.76855 9.93121L9.34522 11.5087L12.5936 8.26038" stroke="#200E32" stroke-linecap="round" stroke-linejoin="round"/>
</svg>
