<svg width="422" height="472" viewBox="0 0 422 472" fill="none" xmlns="http://www.w3.org/2000/svg">
<g opacity="0.7" clip-path="url(#clip0_54_45)">
<path d="M112.321 80.103C115.091 79.8894 115.305 84.1617 112.534 84.3753C111.681 84.3753 110.189 83.7344 109.55 84.1617C108.271 85.0161 107.845 86.2978 106.353 86.725C104.435 87.1522 104.435 88.0067 103.156 89.2883C101.877 90.7836 101.877 90.7836 103.156 92.2789C103.795 93.1333 104.009 95.0558 104.222 96.1239C104.222 97.8328 101.877 98.0464 102.73 100.182C103.369 101.678 102.943 101.037 101.664 101.891C100.385 102.532 100.172 104.455 99.5328 105.736C98.0409 108.086 94.6308 109.154 93.9914 111.931C93.7782 112.999 94.8439 115.135 93.7782 115.99C92.7126 116.844 91.4338 117.485 90.155 117.912C88.8762 118.339 87.3843 118.126 86.3187 119.194C84.8267 120.689 85.0399 123.252 84.4005 125.175C83.7611 126.884 82.9086 127.525 81.8429 129.02C80.7772 130.515 80.1378 132.438 78.8591 133.719C78.2197 134.36 76.9409 136.496 76.0884 136.924C74.8096 137.564 72.6782 135.856 71.6126 137.564C70.7601 139.06 70.3338 139.914 69.055 141.196C67.7762 142.477 67.9894 144.186 67.1368 145.468C66.2843 146.75 64.7924 146.963 63.5136 147.818C62.2348 148.886 62.6611 150.167 62.0217 151.449C61.1692 153.158 56.2671 151.876 54.5621 152.304C53.0702 152.517 50.9389 152.517 49.6601 153.158C48.8075 153.585 46.8894 155.294 46.4631 154.44C45.8237 152.944 45.8237 152.09 46.0368 150.595C46.25 149.527 46.6762 148.459 45.1843 148.459C40.9217 148.672 37.9378 150.167 35.3803 153.585C33.8884 155.508 33.4621 157.217 31.1176 158.498C29.1995 159.566 27.2813 160.421 26.0025 162.13C24.2974 164.479 24.9368 171.956 28.5601 172.597C30.4783 172.81 31.757 174.305 33.8884 174.305C36.2328 174.092 34.954 176.655 34.1015 177.937C33.0358 179.646 32.1833 181.355 33.0358 183.491C33.6752 185.413 34.954 187.549 36.4459 189.258C37.5116 190.326 38.7904 190.113 40.0692 189.899C42.8399 189.472 40.7086 191.394 41.1348 193.317C42.4136 197.803 47.7419 204.638 44.9712 209.338C44.3318 210.192 43.9055 209.979 43.6924 211.26C43.4793 212.328 42.8399 211.26 41.9873 211.474C42.2005 211.474 41.7742 207.629 40.4954 207.629C38.3641 207.629 36.8722 209.124 34.7409 209.338C34.1015 209.338 32.8227 208.91 32.1833 209.551C31.757 210.192 31.5439 211.26 31.757 212.115C30.4783 211.901 28.9863 211.901 27.7075 211.474C26.2156 210.833 25.7894 209.124 24.5106 208.697C23.0187 208.056 22.1661 209.551 20.8873 209.979C19.3954 210.406 16.8378 209.124 15.3459 208.697C14.2803 208.483 12.7884 207.629 11.7227 208.056C10.657 208.483 10.0176 210.406 10.4439 211.474C10.8702 212.542 10.2308 214.251 8.95199 213.824C8.3126 213.61 7.6732 213.824 7.03381 213.824C6.18128 213.61 5.75502 212.755 4.9025 212.542C1.70553 211.901 2.34492 216.814 1.91866 218.309C1.49239 219.377 -0.425787 220.018 1.06613 221.3C1.49239 221.727 2.13179 222.582 2.55805 222.582C2.98431 222.795 3.41058 221.941 3.83684 222.582C5.11563 224.29 7.24694 225.358 7.6732 227.495C8.3126 229.844 11.0833 231.98 13.0015 233.048C15.5591 234.544 18.1166 236.039 20.8873 236.893C22.3793 237.321 23.8712 237.107 25.3631 237.107C27.4944 237.107 25.5762 234.33 27.9207 235.185C29.1995 235.612 31.1176 235.612 32.1833 234.757C33.0358 234.117 33.6752 233.476 34.954 234.33C35.3803 234.544 32.8227 236.893 32.6096 237.107C31.1176 238.389 29.6257 237.534 28.1338 238.389C26.855 239.03 25.3631 239.243 24.2974 240.098C23.0187 241.166 21.953 239.457 20.6742 240.311C20.0348 240.738 18.3298 241.807 17.9035 240.952C17.2641 239.67 17.2641 238.602 15.5591 238.602C13.0015 238.602 11.5096 240.738 11.7227 243.088C11.9358 246.292 15.3459 248.856 17.4772 250.992C19.6086 253.342 21.953 255.478 23.8712 258.041C26.0025 260.818 27.4944 263.808 30.052 266.372C31.3308 267.44 33.0358 267.867 33.6752 269.362C34.5277 271.071 36.2328 270.858 37.9378 271.498C39.2166 272.139 40.2823 273.848 41.9873 272.78C42.4136 272.353 43.2661 271.498 43.9055 271.712C44.9712 271.926 45.6106 272.139 46.6762 271.712C47.955 271.285 50.0863 271.285 51.152 270.43C52.6439 269.149 53.4964 268.722 55.2015 268.508C56.6934 268.294 57.3328 267.867 58.1853 266.799C59.0378 265.517 61.3823 266.372 62.4479 264.663C62.8742 264.022 62.8742 263.168 63.3005 262.527C63.9399 261.459 65.0055 261.032 65.4318 260.177C66.4974 258.682 65.4318 257.187 64.7924 255.905C64.5793 255.478 65.2187 255.264 65.4318 255.05C66.2843 254.41 65.6449 253.555 65.4318 252.914C64.7924 251.205 65.0055 249.069 66.9237 248.215C66.4974 248.428 66.7106 250.778 66.7106 251.205C66.7106 253.342 67.7762 252.273 69.055 252.487C69.4813 252.487 66.9237 254.41 66.9237 255.05C66.9237 257.4 68.4156 257.4 69.9075 257.614C69.2681 257.614 68.8419 259.109 68.8419 259.536C68.8419 260.604 68.8419 260.391 68.2025 261.032C67.1368 261.886 67.1368 262.74 67.1368 264.022C67.35 265.517 68.4156 265.517 69.055 266.799C69.4813 267.653 68.4156 268.081 69.2681 269.149C70.5469 270.43 69.9075 271.498 70.5469 272.994C70.9732 273.848 71.1863 274.489 71.1863 275.343C71.1863 276.839 68.8419 277.48 68.6288 278.975C68.4156 280.897 68.4156 283.247 67.1368 284.956C65.2187 287.519 68.8419 288.801 67.9894 290.937C67.35 292.432 68.2025 292.646 68.6288 293.928C68.8419 294.996 68.4156 296.491 68.4156 297.559C68.4156 299.054 69.2681 300.336 69.2681 301.618C69.4813 303.54 68.2025 303.54 69.4813 305.249C70.1207 306.103 69.055 306.958 68.8419 307.812C68.6288 308.667 69.9075 309.948 70.7601 310.376C71.8257 311.017 70.5469 312.298 70.9732 313.366C71.6126 314.434 72.4651 314.221 72.6782 315.502C72.8914 317.425 74.1702 318.92 74.3833 321.27C74.3833 321.697 73.7439 323.833 73.957 324.047C75.449 325.115 74.8096 325.328 75.2358 327.037C75.449 327.251 75.6621 327.465 75.8752 327.678C76.0883 328.319 75.449 329.387 75.6621 330.028C75.6621 331.523 76.0884 333.018 76.0884 334.514C76.3015 338.145 76.5146 340.495 78.2197 343.699C78.8591 344.981 78.8591 346.262 79.4984 347.544C79.7116 347.971 80.5641 350.748 81.2035 350.748C82.056 350.962 82.056 352.457 82.2692 353.311C82.4823 353.739 82.4823 354.807 82.9086 355.02C83.3348 355.234 84.1873 355.02 84.6136 355.448C84.4005 355.02 81.6298 356.516 84.1873 358.011C85.8924 359.079 85.4661 361.429 86.7449 362.924C87.3843 363.565 88.2368 363.138 88.2368 364.206C88.2368 364.633 88.0237 366.128 88.45 366.342C89.0894 366.555 90.5813 366.555 90.7944 367.41C90.7944 368.264 90.155 368.691 90.7944 369.546C92.0732 371.041 93.1389 372.323 93.352 374.459C93.1389 374.886 92.9257 375.1 92.9257 375.527C92.9257 376.381 93.5651 377.022 93.7782 377.663C94.6308 378.945 94.6308 380.013 95.2702 381.295C95.6964 382.363 96.3358 383.003 96.3358 384.499C96.3358 385.994 96.3358 387.276 96.549 388.771C96.7621 390.266 96.549 392.189 96.9752 393.684C97.1883 394.538 98.254 394.752 98.4671 395.606C98.8934 396.674 98.0409 397.956 99.3197 398.597C99.7459 398.811 100.172 400.306 100.385 400.733C101.025 402.869 101.664 404.792 102.517 406.714C102.943 407.569 103.369 408.423 104.009 409.064C104.648 409.705 106.14 409.491 106.566 410.132C107.632 411.841 108.911 413.123 110.402 414.618C111.042 415.259 110.829 416.754 111.468 417.608C112.108 418.676 112.321 419.317 113.173 420.385C114.026 421.453 113.386 422.735 114.239 423.589C115.091 424.658 115.091 425.726 115.305 426.794C115.305 427.862 116.157 428.075 116.37 429.143C116.583 429.998 116.157 431.493 116.583 432.348C117.01 432.988 117.436 434.484 118.288 434.911C119.141 435.338 118.501 437.047 119.141 437.261C119.354 437.474 119.78 436.833 119.993 436.833C120.42 436.833 120.633 437.901 120.846 438.115C120.846 438.115 123.403 441.106 122.551 441.106C121.485 440.892 121.272 439.183 119.993 439.183C118.928 439.183 119.993 441.746 120.207 442.387C121.485 444.951 121.698 447.514 122.338 450.504C122.551 451.786 123.617 452.427 123.83 453.495C124.256 454.99 123.19 456.272 124.469 457.34C125.535 458.194 125.535 459.476 126.174 460.758C126.814 462.467 128.732 462.894 129.797 464.176C130.65 465.244 131.502 466.953 132.994 466.739C134.486 466.525 133.847 467.807 134.486 468.875C136.191 471.652 138.749 470.37 140.667 472.506C143.438 475.497 144.717 472.934 146.848 471.225C148.766 469.516 151.111 468.448 153.668 468.021C155.373 467.593 155.586 463.321 155.373 462.039C155.16 461.185 155.16 459.69 155.586 458.835C155.799 457.981 158.144 456.272 158.996 456.486C161.128 457.126 161.554 456.272 163.472 455.845C164.751 455.418 166.03 455.631 167.309 455.418C167.948 455.204 170.079 455.204 170.506 454.563C170.719 454.136 171.571 453.922 171.145 453.281C170.506 452.641 170.292 452 169.44 451.573C166.456 449.223 169.014 446.873 170.719 444.737C171.571 443.669 172.637 442.387 173.702 441.533C174.129 441.106 172.211 440.038 173.276 438.756C174.129 437.688 174.981 437.047 176.26 437.474C177.965 438.115 179.031 438.115 180.736 437.901C181.588 437.688 184.146 437.474 184.572 436.62C184.785 435.979 184.359 435.765 183.933 435.552C183.293 435.124 183.507 433.843 183.507 433.202C183.507 432.134 183.933 430.425 183.507 429.357C183.08 428.075 182.654 426.58 183.08 425.298C183.507 423.803 183.507 422.308 182.654 421.026C182.015 419.958 181.162 418.463 182.228 417.608C183.933 416.327 181.588 415.686 182.015 414.404C182.228 413.123 182.867 411.841 183.293 410.773C183.933 409.064 183.933 408.637 185.212 407.569C185.638 407.355 188.195 404.792 188.195 404.365C188.195 403.296 186.064 402.656 186.064 401.801C186.064 401.374 188.835 400.52 189.474 400.092C190.327 399.238 190.753 397.529 191.392 396.461C192.458 394.966 192.032 393.257 191.819 391.548C191.606 389.839 191.179 388.557 189.687 387.703C189.048 387.489 187.556 386.848 187.769 385.994C188.409 383.858 192.245 389.198 190.966 385.14C190.327 383.217 189.687 381.295 188.835 379.586C188.409 378.518 186.917 376.809 187.982 375.527C189.048 374.245 189.9 374.245 189.687 372.536C189.261 369.76 187.769 367.623 187.13 364.846C186.49 361.856 187.13 360.147 189.048 357.797C189.687 357.156 190.54 355.02 190.753 354.166C190.753 353.525 192.458 352.884 192.884 352.457C193.737 351.816 194.589 351.816 195.655 351.603C197.786 351.175 197.573 353.098 198.852 353.952C200.557 355.02 202.688 350.962 203.328 349.894C203.967 349.039 204.18 347.971 205.246 347.544C205.459 347.544 206.312 343.699 206.312 343.272C206.738 341.99 209.082 342.631 209.722 343.272C211 344.553 212.066 344.553 213.984 343.913C215.476 343.485 216.968 342.417 218.247 341.99C220.165 341.136 221.231 340.708 222.723 339.427C223.575 338.786 223.149 335.795 222.936 334.727C222.723 333.873 222.083 333.446 221.87 332.591C221.657 331.096 222.936 331.31 224.001 330.882C224.854 330.455 225.707 330.028 226.346 329.387C227.198 328.746 227.625 327.892 228.477 327.251C230.182 326.396 232.1 326.61 233.806 325.542C235.511 324.474 238.281 322.765 238.281 320.629C238.494 318.066 238.708 316.57 241.265 315.289C243.396 314.221 246.167 313.58 248.085 312.298C250.217 310.803 251.282 307.812 252.987 305.89C253.84 305.035 254.479 303.967 255.545 303.113C256.397 302.472 257.463 302.045 257.25 300.763C257.037 298.2 259.594 298.413 260.234 296.064C260.66 294.568 262.791 293.928 264.07 292.86C264.283 292.646 265.136 292.432 265.349 292.219C265.562 292.005 266.628 289.655 266.415 289.655C267.054 289.869 267.48 290.51 268.333 290.51C268.972 290.51 269.612 289.869 270.251 289.655C271.53 289.442 272.169 288.16 273.448 287.733C276.219 286.451 280.055 285.81 282.186 283.461C284.318 280.897 287.941 279.188 287.088 275.343C286.875 274.489 288.58 273.635 289.007 272.994C290.072 271.712 290.285 269.79 290.072 268.294C289.859 266.585 288.367 266.158 287.515 264.663C286.875 263.381 288.58 261.672 289.433 261.032C290.712 259.75 292.843 260.391 293.909 259.323C294.761 258.255 297.106 258.682 298.384 258.468C299.45 258.255 300.729 258.468 300.942 257.187C301.155 255.691 301.155 255.691 302.647 255.264C303.499 255.05 302.647 252.273 303.713 252.273C304.565 252.273 304.352 255.05 304.565 255.691C304.778 255.905 307.549 255.05 307.975 255.05C309.68 255.05 310.107 254.41 310.959 252.914C311.812 251.633 316.074 255.05 317.14 252.273C318.206 249.71 317.992 247.574 316.5 245.224C316.074 244.583 315.648 242.875 315.648 242.02C315.648 240.738 315.435 240.525 314.582 239.03C313.943 237.748 314.795 236.466 314.582 235.185C314.369 233.262 313.943 233.048 315.009 231.34C315.861 230.058 314.582 228.563 313.303 228.135C311.812 227.708 311.598 228.349 311.812 226.213C312.025 224.504 311.385 223.436 309.893 222.582C308.401 221.513 308.188 220.232 309.467 218.95C310.746 217.669 310.533 216.814 310.32 215.105C310.32 213.824 310.746 212.328 310.32 211.047C309.467 208.697 305.205 210.833 303.713 209.551C302.434 208.483 299.663 204.425 302.647 203.997C304.352 203.784 304.778 202.289 304.991 200.793C305.205 199.084 305.631 199.512 306.91 198.657C308.401 197.589 313.73 199.084 313.09 195.453C312.664 193.53 312.877 193.103 310.959 192.676C309.467 192.249 310.32 190.326 309.041 189.685C307.975 189.258 306.27 190.967 305.631 189.899C304.991 188.617 303.713 188.19 303.073 187.122C302.647 186.481 301.794 186.481 301.155 186.268C299.876 185.84 301.155 183.704 301.155 183.064C301.368 181.141 303.073 180.927 303.926 179.646C304.565 178.578 305.631 181.568 306.057 181.995C306.696 183.064 308.188 184.345 309.467 183.277C310.32 182.636 309.467 180.927 310.32 180.5C311.598 179.859 313.517 182.209 314.369 182.85C315.222 183.704 316.074 183.704 316.927 184.345C318.419 185.2 319.697 184.345 320.976 183.277C322.681 181.782 322.042 184.772 321.616 185.413C320.763 186.909 321.402 187.977 322.681 188.617C322.894 188.831 321.616 192.249 321.616 193.103C321.402 194.812 322.681 195.239 323.96 195.667C325.026 196.094 326.731 196.521 328.01 196.521C329.501 196.521 330.567 196.735 332.059 197.162C334.617 198.016 335.469 195.453 337.814 196.094C339.945 196.735 340.584 196.094 342.502 195.667C344.208 195.453 345.699 196.307 347.405 196.094C349.323 195.88 350.388 196.735 352.52 195.88C354.012 195.026 356.143 194.812 357.422 196.307C356.995 196.735 356.782 197.162 356.356 197.589C356.143 198.444 356.782 198.871 356.782 199.512C356.782 200.152 356.356 200.366 356.143 201.007C355.93 201.648 356.143 202.502 355.93 203.357C355.717 203.997 354.864 204.211 354.225 204.425C352.52 204.638 353.372 206.561 353.159 207.629C350.388 206.561 348.683 209.765 346.552 210.619C343.781 211.687 343.142 215.105 342.929 217.882C342.716 221.3 345.913 223.863 345.486 227.067C345.486 227.495 345.06 231.553 346.552 230.912C347.831 230.272 348.044 231.34 349.11 229.631C348.044 231.34 351.667 232.621 352.946 231.98C353.585 231.553 354.864 230.912 355.29 230.272C355.717 229.631 355.29 228.349 355.29 227.495C355.29 226.427 355.077 224.931 355.717 223.863C356.143 223.009 356.782 222.582 356.995 221.513C356.995 220.659 356.995 220.018 357.422 219.377C358.7 217.241 358.274 219.377 359.127 220.018C361.045 221.086 360.192 221.727 360.406 223.65C360.406 224.931 361.897 225.572 362.537 226.64C362.963 227.495 362.111 229.631 361.897 230.485C361.045 232.194 362.537 232.835 363.389 233.903C364.881 235.612 364.029 236.253 364.242 238.175C364.242 239.03 364.881 239.243 364.881 240.098C364.881 240.952 364.455 241.593 364.668 242.447C364.668 243.515 365.734 244.797 365.947 246.292C366.16 248.001 365.521 248.856 366.799 250.137C368.291 251.633 368.718 249.71 369.144 248.856C369.144 248.856 371.915 250.137 372.128 250.351C373.833 250.565 373.62 248.215 374.046 247.36C374.472 246.292 375.325 245.438 375.964 244.37C376.817 242.447 375.325 241.807 375.538 240.311C375.964 237.534 374.898 234.971 374.259 232.194C374.046 230.912 373.833 229.417 375.538 229.204C377.669 228.99 377.669 227.922 378.095 225.999C378.522 224.29 377.03 223.65 377.03 221.941C377.243 220.232 378.522 219.805 378.095 217.882C377.882 216.387 376.817 214.464 377.669 212.969C378.735 211.047 380.227 213.61 381.292 213.61C381.932 213.61 381.932 212.969 382.571 212.755C383.211 212.542 384.063 213.183 384.702 213.183C385.981 213.396 387.473 212.969 388.113 211.687C388.539 210.619 387.899 209.765 387.899 208.697C388.113 207.629 388.326 205.279 388.965 204.211C389.391 203.57 390.244 203.57 390.67 202.929C391.096 202.289 390.883 201.434 391.096 200.58C391.523 199.084 393.015 198.23 393.228 196.521C393.441 195.026 393.441 193.53 393.654 192.035C393.867 191.181 391.31 190.754 391.31 189.472C391.096 188.404 393.654 186.481 394.293 185.84C395.359 184.772 395.572 183.277 396.425 181.995C397.277 180.714 397.064 178.578 397.49 177.082C398.13 174.946 397.49 173.451 396.851 171.315C396.425 170.033 395.359 168.111 396.851 167.043C397.917 166.402 399.195 166.829 400.261 165.975C401.327 165.12 401.966 163.839 402.606 162.557C403.458 160.848 404.097 159.994 405.589 158.925C406.868 157.857 407.081 156.149 408.147 155.294C409.213 154.44 410.278 154.653 411.131 153.585C411.983 152.944 412.623 153.585 413.688 153.158C415.607 152.09 416.033 151.663 417.312 153.372C418.164 154.653 419.23 155.294 420.722 155.294C422.427 155.508 422.64 155.294 422.64 153.585C422.64 151.235 419.017 150.381 418.377 148.031C417.951 145.895 419.017 146.109 420.295 145.254C421.361 144.614 422.214 143.118 423.066 142.05C424.345 140.769 424.558 140.341 423.706 138.846C423.492 138.419 422.64 138.205 422.64 137.778C422.427 137.137 423.706 136.283 423.279 135.642C423.066 135.215 421.148 135.215 420.722 135.001C419.656 134.574 418.59 134.147 417.312 135.001C416.033 135.856 414.754 133.719 413.475 133.506C412.196 133.079 410.491 134.574 409.426 134.787C407.721 135.215 408.786 133.506 409.426 132.865C410.278 131.797 411.344 130.942 411.983 129.661C412.41 128.806 412.836 127.525 411.557 127.311C410.278 127.097 410.491 125.389 410.278 124.321C410.065 123.252 407.721 123.466 407.721 124.534C407.721 125.175 408.147 125.389 407.294 125.816C406.868 126.029 405.802 126.029 406.016 125.389C406.229 123.893 406.442 123.68 407.721 122.398C408.786 121.33 408.573 119.621 406.868 119.407C405.376 119.194 406.016 119.407 405.163 118.339C403.671 116.417 402.819 117.058 401.327 118.126C400.048 119.194 398.769 120.262 397.49 121.544C396.851 122.398 396.638 124.748 395.572 124.748C393.654 124.961 393.228 124.321 391.523 123.68C390.457 123.039 389.391 123.893 388.113 123.039C387.26 122.612 385.342 122.184 385.342 121.116C385.129 119.194 383.637 121.971 383.211 122.398C382.358 123.466 381.079 123.893 379.8 124.748C378.948 125.389 379.161 127.097 378.522 127.952C377.456 129.234 376.604 130.302 375.751 131.797C375.325 132.651 372.98 132.651 372.128 132.865C371.488 133.079 371.275 133.933 370.636 133.933C369.57 133.719 368.291 133.079 367.226 133.933C366.586 134.36 365.947 136.283 365.521 136.924C365.094 137.564 366.16 138.846 365.521 139.487C364.668 140.128 363.176 139.914 362.324 140.341C361.684 140.769 360.619 141.623 360.192 142.264C359.553 143.118 358.274 143.332 358.274 144.186C358.061 145.041 359.553 146.322 358.7 146.963C358.061 147.604 356.995 148.459 356.143 148.886C355.504 149.313 354.864 148.245 354.012 148.459C352.307 148.672 349.323 149.527 348.044 150.808C346.978 151.876 344.847 147.604 343.568 149.313C342.929 149.954 343.781 151.663 343.568 152.731C343.355 153.799 344.208 154.653 344.208 155.508C344.208 156.362 349.11 156.576 349.962 156.789C350.815 157.003 352.307 157.857 351.667 158.925C350.815 160.421 351.241 161.275 351.241 162.77C351.028 165.334 347.831 162.77 346.765 164.907C346.339 165.761 344.421 164.907 343.781 165.547C342.289 166.615 341.437 166.188 339.732 166.188C336.748 166.188 334.617 168.965 331.42 166.615C329.288 165.12 328.01 165.334 325.878 166.829C325.452 167.256 324.813 167.897 324.173 167.684C323.534 167.684 322.255 167.043 321.829 167.897C321.402 168.752 322.255 170.033 320.55 169.392C319.911 169.179 319.484 168.324 319.484 168.324C318.845 167.897 317.779 168.324 317.14 167.897C316.927 167.684 317.14 167.256 316.5 166.829C315.009 165.761 313.517 168.538 313.09 168.324C312.238 167.897 310.959 166.402 310.107 165.761C309.041 165.12 308.401 164.052 307.975 163.198C307.549 162.343 309.467 161.062 308.828 159.994C308.615 159.353 307.975 159.139 307.549 158.925C306.91 158.712 307.336 157.857 306.91 157.43C306.483 157.217 308.188 154.653 308.188 153.799C307.975 152.09 308.188 151.663 307.123 150.167C305.631 147.604 303.713 147.604 302.008 149.74C300.942 151.022 300.729 150.808 299.237 150.808C298.811 150.808 296.892 151.022 296.679 151.449C296.04 152.517 296.253 153.372 296.892 154.226C298.171 155.721 297.106 156.149 296.253 157.43C295.4 158.712 295.4 159.994 295.187 161.489C294.974 162.77 294.122 163.625 294.122 164.907C293.909 166.402 295.614 168.111 296.253 169.179C297.106 170.46 297.319 173.024 296.892 174.519C296.892 174.733 296.892 177.296 296.04 176.442C295.187 175.801 294.122 176.014 293.269 176.228C291.138 176.869 289.007 177.082 286.875 177.082C284.957 177.082 283.891 175.16 282.186 174.946C280.908 174.733 280.268 176.014 279.416 176.442C278.137 176.869 276.219 176.655 275.153 176.014C274.3 175.374 273.874 173.878 272.595 173.878C271.956 173.878 271.743 174.733 270.89 174.519C270.038 174.519 269.612 173.665 268.759 173.451C267.48 173.024 266.841 174.519 265.562 173.237C264.71 172.383 264.71 171.101 263.218 170.674C261.939 170.46 261.513 171.956 260.234 171.956C258.742 172.169 258.316 171.529 257.25 170.46C256.184 169.606 251.282 169.179 251.069 167.897C250.856 166.188 250.856 165.12 249.79 163.625C248.725 161.916 247.659 162.984 245.954 162.77C244.888 162.77 244.888 161.275 244.249 160.848C243.61 160.421 241.691 160.207 241.052 160.421C239.56 160.848 238.281 161.702 237.002 162.557C237.216 162.343 234.658 161.489 234.445 161.489C233.806 161.489 232.74 161.702 232.314 162.343C232.1 162.557 232.1 163.411 231.887 163.625C232.1 163.625 229.756 162.557 229.33 162.557C228.264 162.557 226.346 162.77 225.493 162.343C224.641 161.916 225.493 160.421 225.28 159.78C224.641 158.285 222.51 158.498 221.231 158.712C220.378 158.925 219.313 160.207 218.673 158.925C218.034 157.857 216.329 157.003 215.263 156.576C213.984 156.149 213.132 155.508 211.853 156.362C209.722 157.43 210.148 155.294 208.443 154.867C207.164 154.44 205.672 154.44 205.459 152.731C205.246 152.09 205.246 151.449 204.82 151.022C203.967 150.381 203.754 151.235 203.967 151.876C201.41 151.022 201.196 147.604 198.213 147.39C195.655 147.177 193.95 146.963 192.671 144.614C191.179 141.837 191.179 144.4 189.9 145.041C189.048 145.254 185.425 142.691 184.998 142.264C184.146 141.409 184.146 140.555 185.425 140.128C186.917 139.701 186.277 138.846 186.49 137.778C186.703 136.71 187.556 136.283 187.769 135.215C187.982 133.933 186.917 132.865 187.769 131.583C188.409 130.302 189.048 130.302 189.261 128.806C189.261 128.166 189.474 127.525 189.9 127.097C190.753 126.457 191.179 125.816 191.819 124.961C192.458 123.893 193.95 124.107 194.589 123.039C195.229 121.757 197.999 119.194 196.081 118.339C194.802 117.699 194.802 116.417 193.95 115.349C192.884 113.854 192.245 114.922 190.753 114.708C189.474 114.494 189.687 113.213 188.409 113.854C187.343 114.494 187.13 112.786 187.13 111.931C186.917 110.222 185.212 107.659 183.08 108.086C182.015 108.3 181.588 107.018 180.523 106.804C179.67 106.591 178.818 106.591 177.965 106.591C176.26 106.377 174.342 106.164 174.129 104.241C173.916 102.319 173.276 99.7553 170.932 99.1144C169.014 98.6872 167.735 102.319 167.948 102.319C167.095 102.105 166.882 101.251 166.669 100.396C166.456 99.7553 165.817 99.5416 165.817 98.9008C165.604 97.6191 168.587 96.9783 166.882 95.2694C165.177 93.7741 166.669 92.0653 166.456 90.1428C166.456 89.5019 165.177 88.8611 164.964 88.2203C164.325 87.1522 164.751 87.1522 165.177 86.5114C165.39 86.0842 163.046 85.8705 163.046 85.4433C162.833 84.3753 163.046 83.0936 163.046 82.0255C163.046 80.9575 163.259 79.035 164.751 79.8894C166.456 80.7439 165.817 81.5983 166.669 83.3072C167.095 84.3753 168.587 86.0842 169.866 85.4433C171.784 84.5889 170.719 84.5889 170.932 83.0936C171.145 82.0255 172.85 82.6664 173.276 81.5983C173.489 80.7439 175.834 81.1711 176.473 80.7439C178.391 79.6758 179.244 78.3942 177.965 76.2581C176.899 74.1219 173.276 73.4811 175.194 70.4906C176.686 67.9272 172.637 66.8592 170.719 66.8592C168.8 66.8592 168.587 66.6456 168.8 64.5094C168.8 63.655 168.8 62.8006 169.227 62.1597C169.653 61.3053 170.719 61.0917 171.145 60.2372C171.358 60.0236 170.506 58.7419 170.506 58.3147C170.292 57.2467 169.44 58.3147 168.587 57.6739C167.948 57.0331 167.948 56.6058 168.587 55.7514C169.866 54.0425 171.145 55.3242 172.85 56.1786C173.489 56.3922 175.834 57.4603 175.834 55.965C175.834 54.6833 177.113 54.6833 177.539 53.6153C177.965 52.3336 178.178 51.052 178.391 49.7703C178.605 49.1295 180.523 48.7022 181.162 48.7022C182.867 48.275 180.949 46.5661 182.015 45.9253C182.867 45.2845 184.146 45.9253 184.998 45.2845C186.277 44.2164 185.851 43.5756 185.851 42.0803C185.851 40.7986 186.703 39.517 186.917 38.2353C187.13 36.9536 188.622 36.3128 189.048 35.2447C189.474 34.3903 189.474 32.0406 189.048 31.1861C188.622 29.9045 186.49 29.2636 185.638 28.4092C183.933 26.9139 183.933 26.2731 181.588 26.0595C180.31 26.0595 178.391 25.4186 177.539 24.3506C176.899 23.7098 176.686 22.2145 175.621 22.8553C174.129 23.4961 173.063 24.7778 171.358 25.205C170.506 25.4186 167.522 24.137 167.309 24.7778C166.669 27.3411 162.193 25.4186 160.275 26.7003C159.21 27.3411 159.21 29.05 158.144 29.6909C157.078 30.3317 154.521 30.9725 153.242 30.9725C152.602 30.9725 152.176 31.3998 151.963 31.6134C151.75 32.0406 150.684 31.6134 150.258 31.6134C148.766 31.6134 149.192 30.1181 148.766 29.05C147.7 26.0595 145.782 25.8459 143.012 26.2731C139.601 26.7003 139.388 24.3506 138.749 21.5736C138.323 20.292 137.896 20.0784 136.618 19.4375C135.126 18.7967 135.126 16.8742 133.634 16.6606C132.142 16.447 130.863 16.2334 129.584 15.3789C128.092 14.5245 128.519 13.2428 127.453 12.3884C125.535 10.8931 124.469 10.0387 123.404 7.90254C122.764 6.62088 122.764 7.0481 121.485 6.40727C120.633 5.98004 121.485 4.48477 120.42 4.05755C115.944 -0.00106204 116.37 0.853382 115.091 1.2806C114.239 1.49421 113.173 0.212549 112.747 1.2806C112.321 2.56227 110.616 1.70783 110.189 1.06699C109.55 0.212549 108.911 -0.641895 108.058 0.42616C107.632 1.06699 106.992 1.92144 106.14 1.92144C104.648 1.70783 104.861 0.42616 103.369 1.49421C102.517 2.13505 100.812 2.56227 100.385 3.2031C99.7459 4.48477 98.0409 2.98949 97.1883 2.77588C95.4833 2.56227 97.1884 5.1256 95.2702 5.55282C94.2045 5.76643 93.5651 5.1256 92.4995 4.91199C90.5813 4.27116 89.0894 5.76643 87.3843 5.33921C85.0399 4.69838 86.5318 8.9706 84.4005 8.9706C83.5479 8.9706 82.6954 9.82504 82.9086 10.6795C83.3348 12.602 81.6298 11.5339 80.5641 12.602C79.4984 13.67 79.0722 13.4564 77.7934 13.8837C76.9409 14.3109 77.5803 16.8742 78.0065 17.515C79.0722 19.2239 77.3671 22.0009 80.5641 21.5736C81.8429 21.36 83.7611 21.1464 85.0399 21.5736C85.4661 21.5736 85.8924 22.2145 86.1055 22.4281C86.7449 23.4961 87.8106 24.137 88.6631 24.9914C89.0894 25.6323 89.5156 26.4867 89.9419 26.9139C91.4338 28.6228 91.8601 26.4867 92.9257 26.2731C93.1389 26.2731 93.5651 30.3317 94.2045 30.5453C94.8439 30.9725 95.4833 31.827 96.1227 32.4678C96.7621 33.1086 98.0409 32.6814 98.8934 33.1086C99.5328 33.5359 99.3197 34.6039 98.6803 35.0311C97.6146 35.672 97.6146 35.8856 97.1883 36.74C96.1227 38.2353 93.5651 37.1672 92.7126 39.0897C92.2863 39.9442 88.6631 42.0803 88.6631 42.0803C88.8762 42.9347 89.3025 43.362 89.3025 44.2164C89.0894 45.0709 88.8762 46.1389 89.3025 46.9933C90.155 48.0614 90.7944 47.6342 90.3682 49.1295C89.9419 50.4111 88.6631 49.9839 89.0894 51.4792C89.5156 52.9745 90.5813 52.7608 90.7944 54.0425C91.0075 55.5378 90.7944 57.0331 91.8601 58.3147C91.0075 57.4603 90.7944 61.5189 90.7944 61.9461C90.7944 63.8686 89.0894 65.5775 90.7944 67.2864C93.352 69.6361 96.3358 68.9953 99.1065 70.7042C99.9591 71.345 100.812 73.2675 101.877 73.2675C102.303 73.2675 105.074 72.8403 105.5 73.4811C105.714 73.6947 104.861 75.6172 105.074 76.2581C105.287 77.1125 106.566 77.9669 107.206 78.1805C108.271 78.3942 109.55 78.6078 110.616 78.6078C111.468 79.035 111.255 80.103 112.321 80.103Z" fill="#E0E7F7"/>
</g>
<g clip-path="url(#clip1_54_45)">
<g opacity="0.18">
<path opacity="0.18" d="M149.241 118.451C136.488 106.829 119.483 99.5801 100.871 99.5801C61.2327 99.5801 29.0627 131.569 29.0627 171.268C28.9478 272.643 166.36 326.495 166.36 326.495C166.36 326.495 304.002 269.306 304.116 171.613C304.116 132.029 272.176 99.8102 232.538 99.6951C214.73 99.6951 198.415 106.139 185.892 116.84" stroke="#002444" stroke-width="4.41423" stroke-miterlimit="10"/>
<path opacity="0.18" d="M193.016 111.317C191.063 108.9 187.501 108.555 185.203 110.511L177.276 116.955C174.863 118.911 174.518 122.478 176.471 124.78C177.39 125.931 178.769 126.621 180.263 126.851C180.493 126.851 180.607 126.851 180.837 126.851C182.101 126.851 183.365 126.391 184.399 125.585L192.327 119.142C194.624 117.3 194.969 113.733 193.016 111.317Z" fill="#002444"/>
<path opacity="0.18" d="M156.248 117.07L148.321 110.627C145.908 108.67 142.461 109.016 140.508 111.432C139.589 112.583 139.129 114.079 139.244 115.575C139.359 117.07 140.163 118.451 141.312 119.372L149.24 125.816C150.274 126.621 151.538 127.081 152.802 127.081C153.031 127.081 153.146 127.081 153.376 127.081C154.87 126.966 156.248 126.161 157.167 125.01C158.087 123.859 158.546 122.364 158.431 120.868C158.087 119.372 157.397 117.991 156.248 117.07Z" fill="#002444"/>
<path opacity="0.18" d="M325.372 276.21C336.413 276.21 345.364 267.246 345.364 256.188C345.364 245.13 336.413 236.166 325.372 236.166C314.331 236.166 305.381 245.13 305.381 256.188C305.381 267.246 314.331 276.21 325.372 276.21Z" fill="#002444"/>
<path opacity="0.18" d="M325.371 267.004C331.336 267.004 336.171 262.161 336.171 256.188C336.171 250.214 331.336 245.371 325.371 245.371C319.407 245.371 314.572 250.214 314.572 256.188C314.572 262.161 319.407 267.004 325.371 267.004Z" fill="#002444"/>
<path opacity="0.18" d="M325.372 263.438C329.37 263.438 332.611 260.192 332.611 256.189C332.611 252.185 329.37 248.939 325.372 248.939C321.375 248.939 318.134 252.185 318.134 256.189C318.134 260.192 321.375 263.438 325.372 263.438Z" fill="#002444"/>
<path opacity="0.18" d="M162.684 329.254C164.637 344.904 163.028 361.473 154.411 375.051C146.943 387.134 134.19 395.879 120.058 398.18C108.569 400.021 91.9096 395.303 95.816 380.229C99.9521 364.58 120.748 365.846 133.041 366.651C149.356 367.802 165.441 371.024 181.641 372.52C199.449 374.246 217.373 374.476 235.066 372.405C260.228 369.413 285.964 362.394 305.496 345.594C326.981 327.298 334.449 300.142 331.002 272.756C330.542 269.189 324.798 269.074 325.257 272.756C328.934 301.408 320.202 328.564 296.189 345.709C269.879 364.58 234.607 368.838 203.126 368.147C184.398 367.687 165.901 364.81 147.288 362.394C132.582 360.553 113.969 357.216 100.642 365.386C91.565 371.024 86.7395 382.071 91.2203 392.312C95.9309 403.013 109.373 405.429 119.829 403.934C134.994 401.862 148.667 393.002 157.514 380.575C167.969 365.846 170.496 346.745 168.313 329.139C167.969 325.572 162.224 325.572 162.684 329.254Z" fill="#002444"/>
<path opacity="0.18" d="M252.644 277.014L246.784 270.34C245.635 269.075 243.797 268.959 242.533 270.11C211.397 297.036 176.24 313.836 166.244 318.324C156.134 313.951 120.402 297.611 89.1511 270.34C87.8873 269.305 86.049 269.305 84.9 270.57L78.9256 277.244C77.7767 278.51 77.8916 280.466 79.1554 281.502C117.874 315.332 161.649 332.592 163.602 333.398L166.359 334.548L169.117 333.398C170.955 332.592 213.81 314.642 252.299 281.387C253.678 280.236 253.793 278.28 252.644 277.014Z" fill="#002444"/>
<path opacity="0.18" d="M101.904 289.787C101.904 289.787 174.517 308.083 230.24 289.787" stroke="#002444" stroke-width="2.64854" stroke-miterlimit="10"/>
</g>
<path d="M146.942 116.149C134.189 104.527 117.185 97.2773 98.5721 97.2773C58.934 97.2773 26.764 129.266 26.764 168.965C26.6491 270.34 164.061 324.192 164.061 324.192C164.061 324.192 301.703 267.003 301.818 169.31C301.818 129.727 269.878 97.5075 230.239 97.3924C212.431 97.3924 196.116 103.836 183.593 114.538" stroke="#31546A" stroke-width="4.41423" stroke-miterlimit="10"/>
<path d="M190.716 109.016C188.763 106.6 185.201 106.254 182.903 108.211L174.976 114.654C172.563 116.611 172.218 120.178 174.172 122.479C175.091 123.63 176.469 124.32 177.963 124.55C178.193 124.55 178.308 124.55 178.538 124.55C179.801 124.55 181.065 124.09 182.099 123.285L190.027 116.841C192.325 115 192.669 111.433 190.716 109.016Z" fill="#30546A"/>
<path d="M153.95 114.77L146.023 108.326C143.61 106.37 140.163 106.715 138.21 109.131C137.291 110.282 136.831 111.778 136.946 113.274C137.061 114.77 137.865 116.15 139.014 117.071L146.942 123.515C147.976 124.32 149.24 124.781 150.504 124.781C150.733 124.781 150.848 124.781 151.078 124.781C152.572 124.666 153.95 123.86 154.869 122.709C155.789 121.559 156.248 120.063 156.133 118.567C155.789 117.071 155.099 115.69 153.95 114.77Z" fill="#30546A"/>
<path d="M323.074 273.907C334.115 273.907 343.065 264.943 343.065 253.885C343.065 242.827 334.115 233.863 323.074 233.863C312.033 233.863 303.083 242.827 303.083 253.885C303.083 264.943 312.033 273.907 323.074 273.907Z" fill="#30546A"/>
<path d="M323.075 264.703C329.04 264.703 333.875 259.86 333.875 253.887C333.875 247.913 329.04 243.07 323.075 243.07C317.111 243.07 312.275 247.913 312.275 253.887C312.275 259.86 317.111 264.703 323.075 264.703Z" fill="#B6DFE9"/>
<path d="M323.074 261.133C327.072 261.133 330.312 257.888 330.312 253.884C330.312 249.88 327.072 246.635 323.074 246.635C319.077 246.635 315.836 249.88 315.836 253.884C315.836 257.888 319.077 261.133 323.074 261.133Z" fill="#30546A"/>
<path d="M160.385 326.953C162.338 342.603 160.73 359.173 152.113 372.751C144.645 384.833 131.892 393.578 117.76 395.879C106.271 397.72 89.6112 393.003 93.5175 377.929C97.6537 362.279 118.449 363.545 130.743 364.351C147.058 365.501 163.143 368.723 179.343 370.219C197.151 371.945 215.074 372.175 232.768 370.104C257.929 367.112 283.665 360.093 303.197 343.293C324.682 324.997 332.15 297.841 328.703 270.455C328.244 266.888 322.499 266.773 322.959 270.455C326.635 299.107 317.903 326.263 293.891 343.408C267.58 362.279 232.308 366.537 200.828 365.847C182.1 365.386 163.602 362.51 144.99 360.093C130.283 358.252 111.671 354.915 98.343 363.085C89.2665 368.723 84.441 379.77 88.9218 390.011C93.6324 400.712 107.075 403.129 117.53 401.633C132.696 399.562 146.368 390.701 155.215 378.274C165.67 363.545 168.198 344.444 166.015 326.838C165.67 323.271 159.926 323.271 160.385 326.953Z" fill="#31546A"/>
<path d="M250.345 274.713L244.486 268.04C243.337 266.774 241.499 266.659 240.235 267.809C209.099 294.735 173.942 311.535 163.946 316.023C153.835 311.65 118.104 295.311 86.8527 268.04C85.5889 267.004 83.7506 267.004 82.6017 268.27L76.6273 274.944C75.4783 276.209 75.5932 278.166 76.857 279.201C115.576 313.031 159.35 330.291 161.303 331.097L164.061 332.248L166.818 331.097C168.657 330.291 211.512 312.341 250.001 279.086C251.379 277.935 251.494 275.979 250.345 274.713Z" fill="#284657"/>
<path d="M99.6058 287.486C99.6058 287.486 172.218 305.782 227.941 287.486" stroke="#284657" stroke-width="2.64854" stroke-miterlimit="10"/>
<g clip-path="url(#clip2_54_45)">
<path d="M196.924 136.004C183.583 134.831 166.814 142.522 162.823 154.839C158.831 142.543 138.375 134.962 125.034 136.135C89.87 139.241 77.9607 181.647 92.8636 210.193C100.89 225.552 112.43 238.978 125.012 251.035C135.555 261.137 162.736 282.535 162.823 282.47C162.91 282.535 190.091 261.137 200.633 251.035C213.215 238.978 224.756 225.552 232.782 210.193C247.707 181.647 232.109 139.111 196.924 136.004Z" fill="#EB2C7D"/>
<g clip-path="url(#clip3_54_45)">
<g clip-path="url(#clip4_54_45)">
<path d="M291.433 212.102H194.686L192.09 207.292C191.887 206.913 191.481 206.699 191.053 206.737C190.625 206.776 190.268 207.067 190.137 207.473L186.614 218.504L182.021 204.283C181.878 203.849 181.478 203.552 181.017 203.547C181.017 203.547 181.017 203.547 181.011 203.547C180.556 203.547 180.15 203.832 180.002 204.266L174.174 221.189L166.492 170.349C166.415 169.833 165.959 169.443 165.438 169.443H165.433C164.906 169.449 164.456 169.839 164.385 170.36L155.402 235.037L146.737 197.37C146.633 196.909 146.232 196.574 145.761 196.546C145.283 196.519 144.855 196.81 144.702 197.26L138.77 214.342L134.501 206.907C134.308 206.578 133.957 206.375 133.573 206.375C133.189 206.38 132.838 206.589 132.651 206.924L129.776 212.107H-67.5432V214.238H130.396C130.786 214.238 131.142 214.029 131.323 213.689L133.584 209.609L138.078 217.433C138.287 217.79 138.687 217.999 139.099 217.96C139.51 217.922 139.867 217.642 140.004 217.252L145.492 201.46L154.623 241.154C154.738 241.637 155.166 241.977 155.654 241.977C155.671 241.977 155.687 241.977 155.704 241.977C156.214 241.955 156.642 241.571 156.713 241.06L165.482 177.927L172.714 225.796C172.786 226.279 173.181 226.652 173.669 226.696C174.158 226.74 174.613 226.449 174.772 225.983L180.978 207.978L185.61 222.32C185.752 222.759 186.158 223.056 186.625 223.056C187.091 223.056 187.497 222.759 187.634 222.315L191.399 210.509L193.105 213.672C193.292 214.018 193.649 214.232 194.044 214.232H291.427C292.015 214.232 292.492 213.754 292.492 213.167C292.497 212.579 292.02 212.102 291.433 212.102Z" fill="white"/>
</g>
</g>
</g>
</g>
<defs>
<clipPath id="clip0_54_45">
<rect width="422" height="471.439" fill="white"/>
</clipPath>
<clipPath id="clip1_54_45">
<rect width="321.356" height="309.879" fill="white" transform="translate(23.8906 94.4023)"/>
</clipPath>
<clipPath id="clip2_54_45">
<rect width="151.849" height="146.552" fill="white" transform="translate(86.5732 135.895)"/>
</clipPath>
<clipPath id="clip3_54_45">
<rect width="135.075" height="73.2762" fill="white" transform="translate(95.4027 169.443)"/>
</clipPath>
<clipPath id="clip4_54_45">
<rect width="360.041" height="72.5285" fill="white" transform="translate(-67.5432 169.443)"/>
</clipPath>
</defs>
</svg>
