<svg width="128" height="38" viewBox="0 0 128 38" fill="none" xmlns="http://www.w3.org/2000/svg">
<path d="M63.5088 22.7654H57.7902L48.4324 12.7875V22.7654H43.6618V1.12109H48.4324V10.6385L57.4844 1.12109H63.1112L53.0807 11.4674L63.5088 22.7654Z" fill="#161F47"/>
<path d="M64.0205 22.7654V1.12109H68.6382V22.7654H64.0205Z" fill="#161F47"/>
<path d="M72.1734 22.7654V7.69114H76.7912V22.7654H72.1734Z" fill="#161F47"/>
<path d="M89.7453 7.32273C91.5393 7.32273 92.8747 7.85488 93.7514 8.91919C94.628 9.96303 95.0663 11.5493 95.0663 13.6779V22.7654H90.4486V13.8928C90.4486 12.8694 90.2549 12.1223 89.8676 11.6516C89.5006 11.1808 88.9196 10.9455 88.1245 10.9455C87.1663 10.9455 86.3916 11.2525 85.8003 11.8665C85.2295 12.4805 84.9441 13.2992 84.9441 14.3226V22.7654H80.3264V7.69114H84.8217V9.84022C85.3518 9.02152 86.0348 8.39727 86.8707 7.96745C87.7269 7.53764 88.6851 7.32273 89.7453 7.32273Z" fill="#161F47"/>
<path d="M98.5136 22.7654V7.69114H103.131V22.7654H98.5136Z" fill="#161F47"/>
<path d="M126.88 22.7654H121.162L111.804 12.7875V22.7654H107.033V1.12109H111.804V10.6385L120.856 1.12109H126.483L116.452 11.4674L126.88 22.7654Z" fill="#161F47"/>
<path d="M76.8746 0.746094H72.0233V5.22423H76.8746V0.746094Z" fill="#00B3DB"/>
<path d="M103.37 0.746094H98.5189V5.22423H103.37V0.746094Z" fill="#00B3DB"/>
<path d="M78.7405 2.98516C78.7405 4.22176 79.743 5.22423 80.9796 5.22423C82.2162 5.22423 83.2187 4.22176 83.2187 2.98516C83.2187 1.74856 82.2162 0.746094 80.9796 0.746094C79.743 0.746094 78.7405 1.74856 78.7405 2.98516Z" fill="#FF4081"/>
<path d="M92.1749 2.98516C92.1749 4.22176 93.1774 5.22423 94.414 5.22423C95.6506 5.22423 96.6531 4.22176 96.6531 2.98516C96.6531 1.74856 95.6506 0.746094 94.414 0.746094C93.1774 0.746094 92.1749 1.74856 92.1749 2.98516Z" fill="#FF4081"/>
<path d="M85.4577 2.98516C85.4577 4.22176 86.4602 5.22423 87.6968 5.22423C88.9334 5.22423 89.9358 4.22176 89.9358 2.98516C89.9358 1.74856 88.9334 0.746094 87.6968 0.746094C86.4602 0.746094 85.4577 1.74856 85.4577 2.98516Z" fill="#FF4081"/>
<path d="M43.9559 34.2578V25.9912H49.8305V27.6563H46.0548V29.2275H49.596V30.8808H46.0548V32.5928H49.8305V34.2578H43.9559ZM57.0827 25.9912H59.2637L55.4997 34.2578H53.7878L50.0239 25.9912H52.2635L54.6672 31.5726L57.0827 25.9912ZM59.7581 34.2578V25.9912H65.6326V27.6563H61.857V29.2275H65.3981V30.8808H61.857V32.5928H65.6326V34.2578H59.7581ZM74.1886 34.2578H71.82L70.3895 31.6195C70.2097 31.3147 69.9244 31.1622 69.5335 31.1622H68.8769V34.2578H66.7545V25.9912H70.6943C71.6949 25.9912 72.4454 26.2101 72.9457 26.6479C73.4538 27.0778 73.7078 27.7032 73.7078 28.524C73.7078 29.1493 73.5359 29.6809 73.1919 30.1187C72.848 30.5486 72.3633 30.8378 71.7379 30.9864C72.2148 31.088 72.5939 31.3968 72.8753 31.9127L74.1886 34.2578ZM70.3543 29.5441C70.8311 29.5441 71.1712 29.4698 71.3744 29.3213C71.5855 29.1728 71.691 28.9305 71.691 28.5943C71.691 28.2504 71.5855 28.0041 71.3744 27.8556C71.1712 27.6993 70.8311 27.6211 70.3543 27.6211H68.8534V29.5441H70.3543ZM82.5524 25.9912L79.0581 30.576V34.2578H76.9006V30.576L73.4298 25.9912H75.857L77.9676 28.864L80.1017 25.9912H82.5524ZM93.0099 25.9912H95.0501L92.0953 34.2578H90.3833L88.6362 29.2979L86.8657 34.2578H85.142L82.1988 25.9912H84.3915L86.1035 31.2326L87.9561 25.9912H89.4453L91.2159 31.3264L93.0099 25.9912ZM101.442 25.9912H103.552V34.2578H101.442V30.916H98.0647V34.2578H95.9541V25.9912H98.0647V29.2041H101.442V25.9912ZM105.058 34.2578V25.9912H110.932V27.6563H107.156V29.2275H110.698V30.8808H107.156V32.5928H110.932V34.2578H105.058ZM119.488 34.2578H117.119L115.689 31.6195C115.509 31.3147 115.224 31.1622 114.833 31.1622H114.176V34.2578H112.054V25.9912H115.994C116.994 25.9912 117.745 26.2101 118.245 26.6479C118.753 27.0778 119.007 27.7032 119.007 28.524C119.007 29.1493 118.835 29.6809 118.491 30.1187C118.147 30.5486 117.663 30.8378 117.037 30.9864C117.514 31.088 117.893 31.3968 118.175 31.9127L119.488 34.2578ZM115.654 29.5441C116.131 29.5441 116.471 29.4698 116.674 29.3213C116.885 29.1728 116.99 28.9305 116.99 28.5943C116.99 28.2504 116.885 28.0041 116.674 27.8556C116.471 27.6993 116.131 27.6211 115.654 27.6211H114.153V29.5441H115.654ZM120.344 34.2578V25.9912H126.219V27.6563H122.443V29.2275H125.984V30.8808H122.443V32.5928H126.219V34.2578H120.344Z" fill="#161F47"/>
<path d="M29.0174 13.5767H27.2584C26.587 13.5767 26.0364 13.0261 26.0364 12.3413C26.0364 11.6833 26.587 11.1328 27.2584 11.1328H29.0174C30.8838 11.1328 32.5758 11.8982 33.8111 13.1067C35.0465 14.3286 35.7984 16.0339 35.7984 17.9138C35.7984 19.7937 35.033 21.4856 33.8111 22.7209C32.5758 23.9294 30.8838 24.6948 29.0174 24.6948H20.0611C19.6314 25.4602 18.8123 25.9705 17.8858 25.9705C16.5162 25.9705 15.4017 24.856 15.4017 23.4863C15.4017 22.1033 16.5162 20.9888 17.8858 20.9888C18.8123 20.9888 19.6314 21.5124 20.0611 22.2644H29.0174C30.199 22.2644 31.2867 21.781 32.0789 20.9888C32.8577 20.2099 33.3545 19.1223 33.3545 17.9272C33.3545 16.7322 32.8577 15.6445 32.0789 14.8657C31.3001 14.06 30.2125 13.5767 29.0174 13.5767Z" fill="#FF4081"/>
<path d="M13.562 6.79443V8.54003C13.562 9.21142 13.0115 9.77538 12.3401 9.77538C11.6821 9.77538 11.1316 9.22485 11.1316 8.54003V6.79443C11.1316 4.91455 11.897 3.22265 13.1189 1.98729C14.3543 0.765371 16.0461 0 17.9126 0C19.7925 0 21.4844 0.765371 22.7197 1.98729C23.9551 3.22265 24.6936 4.91455 24.6936 6.79443V15.7373C25.459 16.1804 25.9692 16.9861 25.9692 17.9126C25.9692 19.2822 24.8547 20.3967 23.4851 20.3967C22.1155 20.3967 21.001 19.2822 21.001 17.9126C21.001 16.9861 21.5112 16.1804 22.2632 15.7373V6.79443C22.2632 5.59936 21.7798 4.51171 20.9876 3.71948C20.2088 2.94067 19.1211 2.44384 17.926 2.44384C16.731 2.44384 15.6567 2.94067 14.8645 3.71948C14.032 4.51171 13.562 5.59936 13.562 6.79443Z" fill="#00B3DB"/>
<path d="M6.78101 24.6931C4.90112 24.6931 3.20922 23.9277 1.97387 22.7192C0.738519 21.4973 0 19.792 0 17.9121C0 16.0322 0.751947 14.3403 1.97387 13.105C3.20922 11.8965 4.90112 11.1311 6.78101 11.1311H15.7373C16.167 10.3657 16.9727 9.85547 17.8992 9.85547C19.2822 9.85547 20.3833 10.97 20.3833 12.3396C20.3833 13.7227 19.2822 14.8372 17.8992 14.8372C16.9727 14.8372 16.167 14.3135 15.7373 13.5615H6.78101C5.58594 13.5615 4.49828 14.0449 3.71948 14.8372C2.92724 15.616 2.44384 16.7036 2.44384 17.8987C2.44384 19.0937 2.92724 20.1814 3.71948 20.9602C4.49828 21.7524 5.58594 22.2358 6.78101 22.2358H8.54002C9.19798 22.2358 9.74852 22.7864 9.74852 23.4712C9.74852 24.156 9.19798 24.6797 8.54002 24.6797H6.78101V24.6931Z" fill="#FF4081"/>
<path d="M24.6667 29.032C24.6667 30.9119 23.9148 32.6037 22.6929 33.8391C21.4575 35.0744 19.7656 35.8264 17.8857 35.8264C16.0193 35.8264 14.3274 35.061 13.092 33.8391C11.8567 32.6037 11.1047 30.9119 11.1047 29.032V20.0891C10.3394 19.646 9.8291 18.8403 9.8291 17.9138C9.8291 16.5442 10.9436 15.4297 12.3132 15.4297C13.6963 15.4297 14.8108 16.5442 14.8108 17.9138C14.8108 18.8403 14.3005 19.646 13.5352 20.0891V29.032C13.5352 30.2271 14.0186 31.3147 14.8108 32.1069C15.603 32.8857 16.6772 33.3826 17.8723 33.3826C19.0674 33.3826 20.155 32.8857 20.9338 32.1069C21.7261 31.3147 22.2095 30.2271 22.2095 29.032V27.2864C22.2095 26.615 22.76 26.051 23.4448 26.051C24.1296 26.051 24.6533 26.6016 24.6533 27.2864V29.032H24.6667Z" fill="#00B3DB"/>
</svg>
