<svg width="29" height="28" viewBox="0 0 29 28" fill="none" xmlns="http://www.w3.org/2000/svg">
<path d="M20.2053 9.65476C20.9012 9.65476 21.4653 9.09064 21.4653 8.39476C21.4653 7.69889 20.9012 7.13477 20.2053 7.13477C19.5094 7.13477 18.9453 7.69889 18.9453 8.39476C18.9453 9.09064 19.5094 9.65476 20.2053 9.65476Z" fill="#FF4081"/>
<path d="M14.6007 8.60913C13.5343 8.60913 12.4919 8.92535 11.6052 9.5178C10.7186 10.1103 10.0275 10.9523 9.61941 11.9375C9.21132 12.9228 9.10455 14.0069 9.31259 15.0528C9.52063 16.0987 10.0341 17.0594 10.7882 17.8134C11.5422 18.5675 12.503 19.081 13.5489 19.289C14.5948 19.4971 15.6789 19.3903 16.6641 18.9822C17.6493 18.5741 18.4914 17.883 19.0838 16.9964C19.6763 16.1097 19.9925 15.0673 19.9925 14.0009C19.9925 12.5709 19.4244 11.1995 18.4133 10.1883C17.4021 9.17719 16.0307 8.60913 14.6007 8.60913ZM14.6007 17.5009C13.9085 17.5009 13.2318 17.2956 12.6562 16.911C12.0807 16.5264 11.6321 15.9798 11.3672 15.3403C11.1023 14.7007 11.0329 13.997 11.168 13.3181C11.303 12.6391 11.6364 12.0155 12.1259 11.526C12.6153 11.0365 13.239 10.7032 13.9179 10.5681C14.5969 10.4331 15.3006 10.5024 15.9401 10.7673C16.5797 11.0322 17.1263 11.4808 17.5109 12.0564C17.8955 12.632 18.1007 13.3086 18.1007 14.0009C18.1007 14.9291 17.732 15.8194 17.0756 16.4758C16.4192 17.1321 15.529 17.5009 14.6007 17.5009Z" fill="#FF4081"/>
<path d="M14.6016 5.39248C17.4051 5.39248 17.7376 5.40298 18.8444 5.45373C19.5102 5.46164 20.1696 5.58387 20.7939 5.81511C21.2469 5.98984 21.6583 6.25746 22.0015 6.60075C22.3448 6.94404 22.6125 7.3554 22.7872 7.80836C23.0184 8.43269 23.1407 9.09212 23.1486 9.75786C23.1993 10.8647 23.2098 11.1972 23.2098 14.0016C23.2098 16.806 23.1993 17.1367 23.1486 18.2436C23.1407 18.9093 23.0184 19.5688 22.7872 20.1931C22.6125 20.6461 22.3448 21.0574 22.0015 21.4007C21.6583 21.744 21.2469 22.0116 20.7939 22.1864C20.1696 22.4176 19.5102 22.5398 18.8444 22.5477C17.7376 22.5985 17.4051 22.609 14.6016 22.609C11.7981 22.609 11.4656 22.5985 10.3587 22.5477C9.69295 22.5398 9.03352 22.4176 8.40919 22.1864C7.95623 22.0116 7.54487 21.744 7.20158 21.4007C6.85829 21.0574 6.59067 20.6461 6.41594 20.1931C6.1847 19.5688 6.06247 18.9093 6.05456 18.2436C6.00381 17.1367 5.99331 16.8042 5.99331 14.0007C5.99331 11.1972 6.00381 10.8647 6.05456 9.75786C6.06247 9.09212 6.1847 8.43269 6.41594 7.80836C6.59067 7.3554 6.85829 6.94404 7.20158 6.60075C7.54487 6.25746 7.95623 5.98984 8.40919 5.81511C9.03352 5.58387 9.69295 5.46164 10.3587 5.45373C11.4656 5.40298 11.7981 5.39248 14.6016 5.39248ZM14.6016 3.50073C11.7499 3.50073 11.3921 3.51298 10.2721 3.56373C9.40124 3.58132 8.5397 3.74641 7.72406 4.05198C7.02645 4.32174 6.39289 4.73429 5.864 5.26317C5.33512 5.79206 4.92257 6.42562 4.65281 7.12323C4.34714 7.93915 4.18205 8.80099 4.16456 9.67211C4.11381 10.7921 4.10156 11.1482 4.10156 14.0007C4.10156 16.8532 4.11381 17.2102 4.16456 18.3302C4.18215 19.2011 4.34724 20.0626 4.65281 20.8782C4.92257 21.5758 5.33512 22.2094 5.864 22.7383C6.39289 23.2672 7.02645 23.6797 7.72406 23.9495C8.53998 24.2552 9.40182 24.4202 10.2729 24.4377C11.3929 24.4885 11.7499 24.5007 14.6016 24.5007C17.4532 24.5007 17.8111 24.4885 18.9311 24.4377C19.8022 24.4202 20.664 24.2552 21.4799 23.9495C22.1776 23.6797 22.8111 23.2672 23.34 22.7383C23.8689 22.2094 24.2814 21.5758 24.5512 20.8782C24.8566 20.0623 25.0214 19.2004 25.0386 18.3294C25.0893 17.2094 25.1016 16.8532 25.1016 14.0007C25.1016 11.1482 25.0893 10.7912 25.0386 9.67123C25.021 8.80041 24.8559 7.93887 24.5503 7.12323C24.2806 6.42562 23.868 5.79206 23.3391 5.26317C22.8102 4.73429 22.1767 4.32174 21.4791 4.05198C20.6631 3.74661 19.8013 3.58181 18.9302 3.56461C17.8102 3.51211 17.4541 3.50073 14.6016 3.50073Z" fill="#FF4081"/>
</svg>
