<svg width="29" height="28" viewBox="0 0 29 28" fill="none" xmlns="http://www.w3.org/2000/svg">
<path d="M15.3858 2.33374C10.3977 2.33374 5.46875 5.53125 5.46875 10.7064C5.46875 13.9974 7.39383 15.8673 8.56055 15.8673C9.04201 15.8673 9.31891 14.577 9.31891 14.2128C9.31891 13.7782 8.16697 12.8522 8.16697 11.0429C8.16697 7.28446 11.1421 4.61949 14.9923 4.61949C18.3026 4.61949 20.7527 6.4288 20.7527 9.75271C20.7527 12.2352 19.7175 16.8912 16.3628 16.8912C15.1525 16.8912 14.1164 16.0498 14.1164 14.844C14.1164 13.0766 15.3998 11.3661 15.3998 9.54254C15.3998 6.44824 10.8349 7.00921 10.8349 10.749C10.8349 11.5343 10.9368 12.4035 11.3015 13.1193C10.6303 15.8964 9.2598 20.0334 9.2598 22.8943C9.2598 23.7776 9.39125 24.6475 9.47836 25.5308C9.64326 25.7089 9.56081 25.6902 9.8136 25.6011C12.2637 22.3752 12.1766 21.7447 13.285 17.5232C13.8831 18.6175 15.4286 19.2061 16.6537 19.2061C21.816 19.2061 24.1354 14.3676 24.1354 10.0063C24.1354 5.36446 19.964 2.33524 15.3851 2.33524L15.3858 2.33374Z" fill="#FF4081"/>
</svg>
