<svg width="20" height="20" viewBox="0 0 20 20" fill="none" xmlns="http://www.w3.org/2000/svg">
<path d="M18.0213 5.21432C17.8678 4.24729 16.9837 3.40221 16.0053 3.2901C12.0125 2.85499 7.9842 2.85512 3.9914 3.29049C3.01648 3.40221 2.13242 4.24713 1.97812 5.21783C1.49279 8.38858 1.49297 11.6147 1.97867 14.7854C2.13234 15.7524 3.01648 16.5974 3.99468 16.7094C5.98906 16.927 7.99379 17.0359 9.99999 17.0358C12.0062 17.0359 14.0109 16.927 16.0053 16.7094L16.0085 16.7091C16.9835 16.5975 17.8677 15.7525 18.0219 14.7817C18.5072 11.611 18.507 8.38495 18.0213 5.21432ZM12.8466 10.5198L9.09663 13.0198C9.00251 13.0825 8.89313 13.1185 8.78015 13.124C8.66716 13.1295 8.55482 13.1041 8.45509 13.0508C8.35536 12.9974 8.27198 12.918 8.21385 12.8209C8.15571 12.7239 8.12501 12.6129 8.12499 12.4998V7.49979C8.125 7.38666 8.1557 7.27565 8.21384 7.17861C8.27197 7.08156 8.35536 7.00211 8.4551 6.94874C8.55485 6.89536 8.66721 6.87006 8.7802 6.87553C8.8932 6.88099 9.00259 6.91703 9.09671 6.97979L12.8467 9.47979C12.9323 9.53686 13.0025 9.61419 13.051 9.7049C13.0996 9.79561 13.125 9.8969 13.125 9.99979C13.125 10.1027 13.0996 10.204 13.051 10.2947C13.0025 10.3854 12.9323 10.4627 12.8467 10.5198H12.8466Z" fill="#FF4081"/>
</svg>
