<svg width="29" height="28" viewBox="0 0 29 28" fill="none" xmlns="http://www.w3.org/2000/svg">
<path d="M23.107 9.32972C23.1222 9.53389 23.1222 9.73689 23.1222 9.93989C23.1222 16.1524 18.3937 23.3111 9.75216 23.3111C7.08982 23.3111 4.61649 22.5399 2.53516 21.2006C2.91316 21.2437 3.27716 21.2589 3.67032 21.2589C5.78548 21.264 7.84074 20.5567 9.50482 19.2511C8.52415 19.2333 7.57349 18.9098 6.7856 18.3256C5.99771 17.7414 5.4119 16.9258 5.10999 15.9926C5.40049 16.0357 5.69216 16.0649 5.99782 16.0649C6.41899 16.0649 6.84249 16.0066 7.23566 15.9051C6.17138 15.6902 5.21438 15.1133 4.52738 14.2725C3.84038 13.4317 3.4658 12.379 3.46732 11.2932V11.2349C4.09382 11.5837 4.82066 11.8019 5.59066 11.8311C4.94559 11.4024 4.41666 10.8207 4.05105 10.138C3.68544 9.45521 3.49452 8.69255 3.49532 7.91805C3.49532 7.04539 3.72749 6.24505 4.13466 5.54739C5.31548 6.99991 6.78824 8.18821 8.45755 9.03532C10.1269 9.88244 11.9555 10.3695 13.825 10.4649C13.7527 10.1149 13.7083 9.75205 13.7083 9.38805C13.708 8.77084 13.8294 8.15962 14.0654 7.58933C14.3015 7.01905 14.6476 6.50087 15.084 6.06444C15.5205 5.62801 16.0386 5.28187 16.6089 5.04581C17.1792 4.80976 17.7904 4.68841 18.4077 4.68872C19.761 4.68872 20.9825 5.25572 21.8412 6.17272C22.8932 5.96927 23.9021 5.58521 24.8232 5.03755C24.4725 6.12351 23.7379 7.04434 22.757 7.62755C23.6901 7.52113 24.602 7.27575 25.4625 6.89955C24.8198 7.8365 24.0234 8.65812 23.107 9.32972Z" fill="#FF4081"/>
</svg>
