<svg width="55" height="55" viewBox="0 0 55 55" fill="none" xmlns="http://www.w3.org/2000/svg">
<path d="M27.6413 25.319C25.1663 25.319 23.1413 27.344 23.1413 29.819C23.1413 32.294 25.1663 34.319 27.6413 34.319C30.1163 34.319 32.1413 32.294 32.1413 29.819C32.1413 27.344 30.1163 25.319 27.6413 25.319ZM41.1413 29.819C41.1403 27.9043 40.7321 26.0116 39.9436 24.2667C39.1552 22.5218 38.0046 20.9646 36.5682 19.6985C35.1318 18.4323 33.4425 17.4862 31.6125 16.923C29.7824 16.3597 27.8535 16.1922 25.9538 16.4315C20.0588 17.1515 15.1988 21.854 14.2988 27.7265C13.5563 32.564 15.4013 36.974 18.6413 39.8765C19.7213 40.844 21.4088 40.619 22.1513 39.359L22.1738 39.3365C22.7138 38.3915 22.4888 37.244 21.6788 36.5015C20.4585 35.413 19.5581 34.0125 19.0745 32.4505C18.5908 30.8884 18.5421 29.2241 18.9338 27.6365C19.3171 26.0521 20.1285 24.6035 21.2791 23.4488C22.4298 22.2942 23.8757 21.4779 25.4588 21.089C26.7855 20.7569 28.1706 20.7317 29.5086 21.0152C30.8466 21.2987 32.1023 21.8835 33.1804 22.7251C34.2585 23.5668 35.1305 24.6431 35.7302 25.8723C36.3299 27.1016 36.6415 28.4513 36.6413 29.819C36.6413 32.474 35.4713 34.8365 33.6488 36.479C32.8388 37.199 32.5913 38.369 33.1313 39.314L33.1538 39.3365C33.8513 40.529 35.4713 40.889 36.5288 39.9665C37.9762 38.7014 39.1365 37.1415 39.932 35.3914C40.7275 33.6413 41.1398 31.7414 41.1413 29.819ZM25.0088 7.47654C14.6138 8.64654 6.22126 17.219 5.25376 27.6365C4.87232 31.51 5.5057 35.4161 7.09161 38.9706C8.67752 42.5251 11.1613 45.6055 14.2988 47.909C15.3788 48.6965 16.9088 48.359 17.5838 47.2115C18.1463 46.244 17.8988 44.984 16.9988 44.309C11.8688 40.5065 8.78626 34.0715 9.88876 26.984C11.1038 19.109 17.6738 12.8315 25.5938 11.954C36.4388 10.7165 45.6413 19.199 45.6413 29.819C45.6413 35.7815 42.7388 41.024 38.2838 44.309C37.3838 44.984 37.1363 46.2215 37.6988 47.2115C38.3738 48.3815 39.9038 48.6965 40.9838 47.909C43.8246 45.8257 46.1343 43.102 47.7254 39.9589C49.3165 36.8158 50.1442 33.3419 50.1413 29.819C50.1413 16.5215 38.5988 5.92404 25.0088 7.47654Z" fill="#FF4C56"/>
</svg>
