<svg width="32" height="32" viewBox="0 0 32 32" fill="none" xmlns="http://www.w3.org/2000/svg">
<path d="M7.2131 15.7295C6.75657 15.7272 6.30417 15.8407 5.88185 16.0637C5.45953 16.2866 5.07559 16.6145 4.75204 17.0286C4.4285 17.4427 4.17173 17.9349 3.99644 18.4769C3.82116 19.0189 3.73082 19.6 3.73059 20.187C3.73059 23.9557 5.17456 26.7974 7.43152 28.6494C9.6538 30.4703 12.6492 31.3306 15.8648 31.3306C19.0803 31.3306 22.0757 30.4703 24.298 28.6494C26.555 26.7996 27.999 23.9535 27.999 20.187C27.999 19.0048 27.6337 17.871 26.9835 17.0351C26.3333 16.1992 25.4515 15.7295 24.532 15.7295H7.2131Z" fill="#05A7E2"/>
<g clip-path="url(#clip0_1_579)">
<path d="M9.99613 23.5293C10.5802 23.5293 11.0722 23.3346 11.4724 22.9452C11.8726 22.5559 12.0727 22.0584 12.0727 21.4527C12.0727 21.0201 11.9375 20.6254 11.6671 20.2685C11.3967 19.9116 11.0668 19.6682 10.6775 19.5384L10.6775 16.2614C10.6775 15.0285 11.1155 13.974 11.9915 13.0979C12.8676 12.2219 13.9329 11.7839 15.1875 11.7839C16.442 11.7839 17.5073 12.2219 18.3834 13.0979C19.2594 13.974 19.6974 15.0285 19.6974 16.2614L19.6974 18.0784C18.7024 18.2514 17.8751 18.7219 17.2153 19.4898C16.5556 20.2577 16.2257 21.1499 16.2257 22.1665L16.2257 25.6058C16.2257 25.9952 16.3609 26.325 16.6313 26.5954C16.9017 26.8658 17.2315 27.001 17.6209 27.001L18.3023 27.001C18.7565 27.001 18.9836 26.7739 18.9836 26.3196C18.9836 25.8437 18.7565 25.6058 18.3023 25.6058L17.6209 25.6058L17.6209 22.1665C17.6209 21.4095 17.8913 20.7552 18.432 20.2036C18.9728 19.652 19.6217 19.3762 20.3788 19.3762C21.1359 19.3762 21.7848 19.652 22.3255 20.2036C22.8663 20.7552 23.1367 21.4095 23.1367 22.1665L23.1367 25.6058L22.4553 25.6058C22.0011 25.6058 21.774 25.8437 21.774 26.3196C21.774 26.7739 22.0011 27.001 22.4553 27.001L23.1367 27.001C23.526 27.001 23.8559 26.8658 24.1263 26.5954C24.3967 26.325 24.5319 25.9952 24.5319 25.6058L24.5319 22.1665C24.5319 21.1499 24.202 20.2576 23.5423 19.4898C22.8825 18.7219 22.0552 18.2514 21.0602 18.0784L21.0602 16.2614C21.0602 14.6391 20.4869 13.2548 19.3405 12.1083C18.1941 10.9619 16.8098 10.3887 15.1875 10.3887C13.5652 10.3887 12.1808 10.9619 11.0344 12.1083C9.88797 13.2548 9.31476 14.6391 9.31476 16.2614L9.31476 19.5384C8.90378 19.6682 8.56851 19.9116 8.30894 20.2685C8.04938 20.6254 7.91959 21.0201 7.91959 21.4527C7.91959 22.0584 8.11968 22.5559 8.51984 22.9452C8.92001 23.3346 9.4121 23.5293 9.99613 23.5293ZM9.99613 20.7714C10.4504 20.7714 10.6775 20.9985 10.6775 21.4527C10.6775 21.9286 10.4504 22.1665 9.99613 22.1665C9.54188 22.1665 9.31476 21.9286 9.31476 21.4527C9.31476 20.9985 9.54188 20.7714 9.99613 20.7714Z" fill="white"/>
</g>
<path d="M15.8654 0.131836C14.0264 0.131836 12.2628 0.862361 10.9624 2.1627C9.6621 3.46305 8.93158 5.22669 8.93158 7.06565C8.93158 8.90461 9.6621 10.6683 10.9624 11.9686C12.2628 13.2689 14.0264 13.9995 15.8654 13.9995C17.7044 13.9995 19.468 13.2689 20.7683 11.9686C22.0687 10.6683 22.7992 8.90461 22.7992 7.06565C22.7992 5.22669 22.0687 3.46305 20.7683 2.1627C19.468 0.862361 17.7044 0.131836 15.8654 0.131836Z" fill="#05A7E2"/>
<defs>
<clipPath id="clip0_1_579">
<rect width="16.6123" height="16.6123" fill="white" transform="translate(24.5319 27.001) rotate(180)"/>
</clipPath>
</defs>
</svg>
