<svg width="55" height="55" viewBox="0 0 55 55" fill="none" xmlns="http://www.w3.org/2000/svg">
<path d="M27.9895 4.56348C15.6145 4.56348 5.48952 14.6885 5.48952 27.0635C5.48952 39.4385 15.6145 49.5635 27.9895 49.5635C40.3645 49.5635 50.4895 39.4385 50.4895 27.0635C50.4895 14.6885 40.3645 4.56348 27.9895 4.56348ZM19.957 32.5535L16.897 31.181C17.527 29.921 17.8645 28.571 17.8645 27.176C17.8645 25.691 17.527 24.2735 16.897 22.946L19.957 21.5735C20.812 23.396 21.2395 25.2635 21.2395 27.176C21.2395 28.8635 20.812 30.6635 19.957 32.5535ZM26.932 35.9285L23.9845 34.466C25.177 31.9235 25.7395 29.3135 25.7395 26.7485C25.7395 24.206 25.177 21.866 23.9845 19.661L26.932 17.9735C28.417 20.5835 29.1145 23.5085 29.1145 26.7485C29.1145 30.056 28.417 33.116 26.932 35.9285ZM34.0195 39.101L30.937 37.526C32.7145 34.061 33.6145 30.596 33.6145 27.0635C33.6145 23.531 32.7145 20.021 30.937 16.511L34.0195 15.026C35.977 19.031 36.9895 23.0585 36.9895 27.0635C36.9895 31.1585 35.977 35.1635 34.0195 39.101Z" fill="#5572F3"/>
</svg>
