<svg width="55" height="55" viewBox="0 0 55 55" fill="none" xmlns="http://www.w3.org/2000/svg">
<path d="M43.8998 6.35254C45.3065 6.35254 46.6556 6.91136 47.6503 7.90606C48.645 8.90076 49.2038 10.2499 49.2038 11.6566V43.4855C49.2038 44.8922 48.645 46.2413 47.6503 47.236C46.6556 48.2307 45.3065 48.7896 43.8998 48.7896H12.0779C11.3814 48.7896 10.6917 48.6524 10.0481 48.3858C9.40463 48.1193 8.81992 47.7286 8.32739 47.236C7.83487 46.7435 7.44417 46.1588 7.17762 45.5153C6.91107 44.8718 6.77388 44.1821 6.77388 43.4855V11.6566C6.77388 10.2499 7.33269 8.90076 8.32739 7.90606C9.32209 6.91136 10.6712 6.35254 12.0779 6.35254H43.8998ZM22.8321 18.0191L19.1618 26.3877H15.6139C15.145 26.3877 14.6953 26.5739 14.3638 26.9055C14.0322 27.2371 13.8459 27.6868 13.8459 28.1557C13.8459 28.6246 14.0322 29.0743 14.3638 29.4058C14.6953 29.7374 15.145 29.9237 15.6139 29.9237H20.3169C20.6602 29.9239 20.9962 29.8242 21.2837 29.6366C21.5713 29.4491 21.7981 29.1819 21.9364 28.8676L24.3762 23.2995L29.8853 37.0547C30.0119 37.371 30.2273 37.6441 30.5054 37.8409C30.7836 38.0378 31.1127 38.15 31.4531 38.1642C31.7936 38.1784 32.1309 38.0939 32.4244 37.9209C32.718 37.7479 32.9553 37.4938 33.1078 37.189L36.7429 29.926H40.3661C40.835 29.926 41.2847 29.7398 41.6163 29.4082C41.9479 29.0766 42.1341 28.6269 42.1341 28.158C42.1341 27.6891 41.9479 27.2394 41.6163 26.9079C41.2847 26.5763 40.835 26.39 40.3661 26.39H35.6514C35.3235 26.3902 35.0022 26.4816 34.7233 26.654C34.4444 26.8263 34.2189 27.0728 34.072 27.366L31.7052 32.0901L26.0924 18.0709C25.9627 17.7477 25.7405 17.4699 25.4536 17.2724C25.1666 17.075 24.8277 16.9667 24.4795 16.9612C24.1312 16.9556 23.7891 17.0531 23.496 17.2413C23.203 17.4295 22.972 17.7001 22.8321 18.0191Z" fill="#16C35F"/>
</svg>
