<svg width="55" height="55" viewBox="0 0 55 55" fill="none" xmlns="http://www.w3.org/2000/svg">
<path d="M39.543 46.1143H14.962C14.5998 46.1143 14.2525 46.2581 13.9964 46.5142C13.7403 46.7703 13.5964 47.1177 13.5964 47.4799C13.5964 47.842 13.7403 48.1894 13.9964 48.4455C14.2525 48.7016 14.5998 48.8455 14.962 48.8455H39.543C39.9052 48.8455 40.2525 48.7016 40.5086 48.4455C40.7647 48.1894 40.9086 47.842 40.9086 47.4799C40.9086 47.1177 40.7647 46.7703 40.5086 46.5142C40.2525 46.2581 39.9052 46.1143 39.543 46.1143Z" fill="#FE8E12"/>
<path d="M46.2618 20.6477C45.5875 20.7842 44.9013 20.8528 44.2134 20.8525C42.6607 20.8524 41.1287 20.4974 39.7342 19.8147C38.8519 22.359 37.5704 24.7468 35.9378 26.8885C36.2314 27.3798 36.3871 27.9412 36.3884 28.5136C38.6336 28.9783 40.9245 29.1845 43.2165 29.1281C42.9875 29.843 42.7091 30.5411 42.3835 31.2175H41.6187C39.628 31.2106 37.646 30.9536 35.7193 30.4528C35.2615 31.0749 34.5897 31.5057 33.8333 31.662C33.0769 31.8183 32.2893 31.6892 31.6225 31.2994C28.815 33.5586 25.5551 35.1886 22.0632 36.0791C21.9573 36.6411 21.7025 37.1644 21.3253 37.5944C20.9482 38.0243 20.4626 38.3452 19.9192 38.5235L19.5232 38.6054C17.7565 37.6287 16.1867 36.3321 14.8938 34.7817H15.7951C15.9257 34.1315 16.2562 33.5383 16.7405 33.0851C17.2247 32.6319 17.8385 32.3413 18.496 32.2541C19.1535 32.1668 19.8218 32.2872 20.4075 32.5984C20.9932 32.9096 21.4671 33.396 21.7628 33.9897C24.8585 33.1726 27.7509 31.7217 30.2569 29.729C30.0381 29.2266 29.9534 28.6761 30.011 28.1312C29.4375 27.8035 28.8639 27.4621 28.304 27.0934C25.329 25.1208 22.8328 22.5079 20.998 19.4459C20.4497 19.5965 19.8709 19.596 19.3228 19.4446C18.7747 19.2931 18.2777 18.9963 17.8844 18.5856C15.3443 20.4464 13.05 22.6213 11.0564 25.0586V24.2802C11.063 23.4891 11.1269 22.6996 11.2476 21.9177C12.8856 19.9075 14.8196 18.1577 16.9831 16.7284C16.9063 16.1255 17.0076 15.5133 17.2746 14.9674C17.5415 14.4214 17.9624 13.9654 18.4853 13.6558C18.3214 13.0686 18.1576 12.4813 18.0347 11.8805C18.0347 11.6893 18.0347 11.4844 17.8844 11.0065C18.4805 10.5687 19.1056 10.1718 19.7553 9.8184C19.8919 10.6241 19.9465 11.0475 20.0421 11.4708C20.1377 11.8941 20.3152 12.6316 20.4791 13.2051H20.8205C21.4058 13.3405 21.9408 13.6388 22.3636 14.0654C26.1516 12.7398 30.2001 12.3326 34.1762 12.8774C33.6957 10.7813 33.8917 8.58693 34.7361 6.60922C31.835 5.42002 28.6859 4.96256 25.5664 5.27714C22.4469 5.59173 19.4526 6.6687 16.8473 8.41317C14.2421 10.1576 12.1059 12.5161 10.6269 15.2807C9.14788 18.0453 8.3715 21.1312 8.36615 24.2665C8.36615 24.8811 8.36615 25.4819 8.46174 26.0828C8.70815 28.6592 9.47511 31.1588 10.7162 33.4301C11.9572 35.7013 13.6465 37.6969 15.6816 39.2959C17.7168 40.895 20.0554 42.0641 22.5558 42.7326C25.0562 43.401 27.6662 43.5548 30.2278 43.1846C32.7894 42.8145 35.2491 41.928 37.458 40.5791C39.6669 39.2301 41.5788 37.4467 43.078 35.3369C44.5772 33.2272 45.6324 30.8349 46.1797 28.3053C46.7269 25.7756 46.7549 23.1612 46.2618 20.6204V20.6477Z" fill="#FE8E12"/>
<path d="M23.3469 15.8942C23.4154 16.3196 23.3936 16.7546 23.2831 17.1711C23.1725 17.5875 22.9756 17.976 22.7051 18.3114C24.3786 21.1718 26.6808 23.6142 29.4376 25.4535C29.9019 25.7676 30.3798 26.0407 30.8032 26.3138C31.2369 25.8343 31.8092 25.5017 32.4406 25.3623C33.0719 25.2228 33.731 25.2833 34.3264 25.5354C35.8864 23.4738 37.0911 21.166 37.8907 18.7074C36.6394 17.7358 35.6298 16.4879 34.941 15.0612C31.0682 14.3512 27.0784 14.6379 23.3469 15.8942Z" fill="#FE8E12"/>
<path d="M44.2132 17.4383C47.9843 17.4383 51.0413 14.3813 51.0413 10.6103C51.0413 6.83925 47.9843 3.78223 44.2132 3.78223C40.4422 3.78223 37.3852 6.83925 37.3852 10.6103C37.3852 14.3813 40.4422 17.4383 44.2132 17.4383Z" fill="#FE8E12"/>
</svg>
