<svg width="55" height="55" viewBox="0 0 55 55" fill="none" xmlns="http://www.w3.org/2000/svg">
<g clip-path="url(#clip0_1_621)">
<path d="M31.6614 9.34082L5.52511 9.34082C3.13261 9.34082 1.19324 11.3721 1.19324 13.8781L1.19324 41.2536C1.19324 43.7595 3.13261 45.7908 5.52511 45.7908L31.6614 45.7908C34.0539 45.7908 35.9932 43.7595 35.9932 41.2536L35.9932 13.8781C35.9932 11.3721 34.0539 9.34082 31.6614 9.34082ZM48.8257 12.9194L38.8932 20.0955L38.8932 35.0362L48.8257 42.2028C50.747 43.5886 53.3932 42.1743 53.3932 39.7538L53.3932 15.3684C53.3932 12.9573 50.7561 11.5335 48.8257 12.9194Z" fill="#32A4FF"/>
<path d="M10.0281 31.3096L10.0281 23.7621L11.7297 23.7621L11.7297 26.6676L14.3343 26.6676L14.3343 23.7621L16.0475 23.7621L16.0475 31.3096L14.3343 31.3096L14.3343 28.1609L11.7297 28.1609L11.7297 31.3096L10.0281 31.3096ZM20.8959 30.0594C21.4129 30.0594 21.8219 29.8356 22.1229 29.388C22.4239 28.9404 22.5744 28.3114 22.5744 27.5011C22.5744 26.7448 22.4239 26.1544 22.1229 25.73C21.8219 25.3055 21.4129 25.0933 20.8959 25.0933C20.3788 25.0933 19.9698 25.3055 19.6688 25.73C19.3678 26.1544 19.2174 26.7448 19.2174 27.5011C19.2174 28.3114 19.3678 28.9404 19.6688 29.388C19.9698 29.8356 20.3788 30.0594 20.8959 30.0594ZM23.3847 33.4164C22.9834 33.4164 22.613 33.3624 22.2734 33.2543C21.9338 33.154 21.6251 33.0112 21.3473 32.826C21.0772 32.6485 20.838 32.4324 20.6296 32.1778C20.4212 31.9308 20.2515 31.6607 20.1203 31.3674C19.719 31.2826 19.3524 31.1359 19.0206 30.9276C18.6964 30.7115 18.4186 30.4375 18.1871 30.1057C17.9556 29.7738 17.7781 29.3918 17.6546 28.9597C17.5311 28.5198 17.4694 28.0336 17.4694 27.5011C17.4694 26.8837 17.5504 26.3358 17.7125 25.8573C17.8823 25.3711 18.1176 24.966 18.4186 24.6418C18.7196 24.31 19.0784 24.0592 19.4952 23.8894C19.9196 23.7119 20.3865 23.6232 20.8959 23.6232C21.4052 23.6232 21.8682 23.7119 22.285 23.8894C22.7094 24.0592 23.0721 24.31 23.3731 24.6418C23.6741 24.9737 23.9056 25.3827 24.0677 25.8689C24.2374 26.3474 24.3223 26.8914 24.3223 27.5011C24.3223 28.5198 24.1062 29.3571 23.6741 30.0131C23.2419 30.669 22.6593 31.1012 21.9261 31.3096C22.1036 31.5797 22.3429 31.7687 22.6438 31.8768C22.9448 31.9925 23.2573 32.0504 23.5815 32.0504C23.7435 32.0504 23.894 32.0389 24.0329 32.0157C24.1796 31.9925 24.3069 31.9617 24.4149 31.9231L24.7159 33.1617C24.577 33.2312 24.3918 33.2891 24.1603 33.3354C23.9365 33.3894 23.6779 33.4164 23.3847 33.4164Z" fill="white"/>
</g>
<defs>
<clipPath id="clip0_1_621">
<rect width="52.2" height="48.6" fill="white" transform="translate(1.19324 3.2666)"/>
</clipPath>
</defs>
</svg>
