<svg width="32" height="32" viewBox="0 0 32 32" fill="none" xmlns="http://www.w3.org/2000/svg">
<path d="M15.9999 2.99805C15.4311 2.99805 14.868 3.11007 14.3425 3.32773C13.817 3.54538 13.3396 3.8644 12.9374 4.26657C12.5352 4.66875 12.2162 5.14619 11.9986 5.67166C11.7809 6.19712 11.6689 6.76031 11.6689 7.32907C11.6689 7.89783 11.7809 8.46102 11.9986 8.98648C12.2162 9.51194 12.5352 9.98939 12.9374 10.3916C13.3396 10.7937 13.817 11.1128 14.3425 11.3304C14.868 11.5481 15.4311 11.6601 15.9999 11.6601C17.1486 11.6601 18.2502 11.2038 19.0624 10.3916C19.8746 9.57934 20.3309 8.47773 20.3309 7.32907C20.3309 6.18041 19.8746 5.0788 19.0624 4.26657C18.2502 3.45435 17.1486 2.99805 15.9999 2.99805Z" fill="#05A7E2"/>
<path d="M25.7545 5.16211C24.8922 5.16211 24.0651 5.50468 23.4553 6.11446C22.8456 6.72423 22.503 7.55127 22.503 8.41363C22.503 9.27598 22.8456 10.103 23.4553 10.7128C24.0651 11.3226 24.8922 11.6651 25.7545 11.6651C26.6169 11.6651 27.4439 11.3226 28.0537 10.7128C28.6635 10.103 29.006 9.27598 29.006 8.41363C29.006 7.55127 28.6635 6.72423 28.0537 6.11446C27.4439 5.50468 26.6169 5.16211 25.7545 5.16211Z" fill="#05A7E2"/>
<path d="M6.24541 5.16211C5.38306 5.16211 4.55602 5.50468 3.94624 6.11446C3.33647 6.72423 2.9939 7.55127 2.9939 8.41363C2.9939 9.27598 3.33647 10.103 3.94624 10.7128C4.55602 11.3226 5.38306 11.6651 6.24541 11.6651C7.10777 11.6651 7.93481 11.3226 8.54458 10.7128C9.15436 10.103 9.49693 9.27598 9.49693 8.41363C9.49693 7.55127 9.15436 6.72423 8.54458 6.11446C7.93481 5.50468 7.10777 5.16211 6.24541 5.16211Z" fill="#05A7E2"/>
<path d="M9.49695 15.9845C9.50095 15.4123 9.7311 14.8648 10.1372 14.4616C10.5433 14.0583 11.0923 13.832 11.6646 13.832H20.3353C20.9102 13.832 21.4616 14.0604 21.8681 14.4669C22.2746 14.8734 22.503 15.4248 22.503 15.9997V22.5027C22.5029 23.185 22.3961 23.863 22.1865 24.5122C21.7066 25.9834 20.7178 27.2353 19.3979 28.0431C18.0779 28.8509 16.5132 29.1617 14.9847 28.9197C13.4562 28.6776 12.0641 27.8986 11.0583 26.7225C10.0525 25.5464 9.4989 24.0503 9.49695 22.5027V15.9997V15.9845Z" fill="#05A7E2"/>
<path d="M7.32927 15.9997C7.32927 15.2085 7.53953 14.4693 7.91021 13.832H2.99391C2.41901 13.832 1.86765 14.0604 1.46113 14.4669C1.05461 14.8734 0.826233 15.4248 0.826233 15.9997V21.4189C0.825938 22.3061 1.04349 23.1799 1.45979 23.9634C1.87608 24.7469 2.47839 25.4162 3.21381 25.9126C3.94922 26.4089 4.79526 26.7171 5.67762 26.8101C6.55998 26.903 7.45166 26.7779 8.27437 26.4458C7.65047 25.2244 7.32649 23.872 7.32927 22.5006V15.9997Z" fill="#05A7E2"/>
<path d="M24.6706 15.9997V22.5027C24.6706 23.9226 24.3303 25.2622 23.7255 26.4458C24.5482 26.7779 25.4399 26.903 26.3223 26.8101C27.2046 26.7171 28.0507 26.4089 28.7861 25.9126C29.5215 25.4162 30.1238 24.7469 30.5401 23.9634C30.9564 23.1799 31.174 22.3061 31.1737 21.4189V15.9997C31.1737 15.4248 30.9453 14.8734 30.5388 14.4669C30.1323 14.0604 29.5809 13.832 29.006 13.832H24.0897C24.4582 14.4693 24.6706 15.2085 24.6706 15.9997Z" fill="#05A7E2"/>
</svg>
