<svg width="72" height="72" viewBox="0 0 72 72" fill="none" xmlns="http://www.w3.org/2000/svg">
<path d="M52.0497 0H19.9501C17.2758 0 15.087 2.18674 15.087 4.86309V67.1349C15.087 69.8112 17.2758 72 19.9501 72H52.0497C54.724 72 56.9128 69.8153 56.9128 67.1369V4.86309C56.9128 2.18674 54.724 0 52.0497 0ZM30.8653 3.50537H41.1345C41.4595 3.50537 41.7229 3.76869 41.7229 4.09577C41.7229 4.4208 41.4595 4.68411 41.1345 4.68411H30.8653C30.5402 4.68411 30.2769 4.4208 30.2769 4.09577C30.2769 3.76869 30.5402 3.50537 30.8653 3.50537ZM35.9999 69.5685C34.6566 69.5685 33.5683 68.4802 33.5683 67.1349C33.5683 65.7895 34.6566 64.7033 35.9999 64.7033C37.3432 64.7033 38.4314 65.7895 38.4314 67.1349C38.4314 68.4802 37.3432 69.5685 35.9999 69.5685ZM53.5288 63H18.471V7.71223H53.5288V63Z" fill="#FF4081"/>
<g clip-path="url(#clip0_1_357)">
<path fill-rule="evenodd" clip-rule="evenodd" d="M35.2522 32.5141L38.8614 33.5151L46.1742 35.5433L48.151 28.4473C49.1664 24.8025 47.0079 20.9904 43.355 19.9771C39.7004 18.964 35.8815 21.1159 34.8642 24.7624L33.6932 28.9705C33.6932 31.5411 34.3748 32.2717 35.2522 32.5141Z" fill="#FF4081"/>
<path fill-rule="evenodd" clip-rule="evenodd" d="M45.0477 27.5849L43.071 34.6808L46.175 35.5423L48.1518 28.4463C49.1673 24.8015 47.0088 20.9894 43.3559 19.9761C42.8211 19.8279 42.2845 19.7477 41.7514 19.7285C44.4674 21.2388 45.9146 24.472 45.0477 27.5849Z" fill="#EF2A6D"/>
<path fill-rule="evenodd" clip-rule="evenodd" d="M46.1744 35.5431L43.0703 34.6816L41.0935 41.7776C40.564 43.6802 39.2706 45.1765 37.6347 46.0275C37.4809 46.4025 37.2991 46.7548 37.0893 47.0861C36.9723 47.2726 36.8464 47.4523 36.7118 47.6249C40.0378 48.0313 43.2748 45.9508 44.1976 42.6391L46.1744 35.5431Z" fill="#DDDAEC"/>
<path fill-rule="evenodd" clip-rule="evenodd" d="M29.4323 27.127C26.2094 27.127 23.5982 29.7341 23.5982 32.9499C23.5982 35.2187 24.8968 37.1823 26.7949 38.145C28.9674 39.1111 31.6363 39.0867 33.6655 36.9574C34.6583 35.9146 35.2682 34.502 35.2682 32.9499C35.2682 32.8034 35.263 32.6586 35.2525 32.5157C35.1511 31.1484 34.5779 29.9138 33.6934 28.9721C32.6291 27.8367 31.1137 27.127 29.4323 27.127Z" fill="#FFD772"/>
<path fill-rule="evenodd" clip-rule="evenodd" d="M31.2467 43.4129L38.0229 44.754C38.6626 41.5556 36.948 38.2597 33.8019 37.0093C33.7565 36.9919 33.7111 36.9744 33.6656 36.957C32.9822 36.7023 32.2813 36.5611 31.5875 36.528C29.8345 36.4408 28.1199 37.0302 26.795 38.1446C26.2585 38.5928 25.7883 39.1282 25.4038 39.7402L31.2467 43.4129Z" fill="#B1E4F9"/>
<path fill-rule="evenodd" clip-rule="evenodd" d="M37.0887 47.0862L31.2388 44.1686L24.4714 42.0742C23.8352 45.269 25.5498 48.5633 28.6924 49.8119C29.5278 50.1433 30.3912 50.3019 31.2389 50.3019H31.2511C33.3712 50.3002 35.4021 49.3166 36.7112 47.625C36.8458 47.4524 36.9716 47.2728 37.0887 47.0862Z" fill="#B1E4F9"/>
<path fill-rule="evenodd" clip-rule="evenodd" d="M30.8706 27.3047C32.2077 28.7312 33.924 33.9333 30.5822 36.5509C30.9143 36.5177 31.2499 36.509 31.5872 36.5265C32.2811 36.5596 32.982 36.7009 33.6653 36.9554C34.6581 35.9126 35.2681 34.5 35.2681 32.9479C35.2681 32.8014 35.2628 32.6567 35.2523 32.5137C35.1509 31.1465 34.5777 29.9118 33.6933 28.9701C32.9418 28.1697 31.9683 27.582 30.8706 27.3047Z" fill="#FBBA58"/>
<path fill-rule="evenodd" clip-rule="evenodd" d="M37.0892 47.0868L33.8296 45.791C33.7632 46.0125 33.6916 46.227 33.6111 46.4398C33.0186 48.0232 32.0591 49.3625 30.8654 50.2921C30.9894 50.299 31.1153 50.3025 31.2394 50.3025H31.2516C33.3717 50.3008 35.4026 49.3172 36.7117 47.6256C36.8463 47.453 36.9721 47.2734 37.0892 47.0868Z" fill="#11B5E4"/>
<path fill-rule="evenodd" clip-rule="evenodd" d="M34.2616 43.2583L38.0229 44.7528C38.6626 41.5544 36.948 38.2585 33.8019 37.0081C33.7565 36.9907 33.7111 36.9732 33.6656 36.9558C33.2234 36.7901 32.7742 36.6733 32.3251 36.6035C32.5576 36.9104 32.7725 37.2366 32.9683 37.5818C33.7932 39.0345 34.2756 40.7993 34.2756 42.7019C34.2756 42.8886 34.2721 43.0734 34.2616 43.2583Z" fill="#11B5E4"/>
<path fill-rule="evenodd" clip-rule="evenodd" d="M38.0227 44.752L30.7467 41.8606L25.4037 39.7383C25.1834 40.087 24.9912 40.462 24.8321 40.8596C24.6731 41.2607 24.5542 41.6653 24.4721 42.0734L32.2288 45.1549L37.0894 47.0854C37.3114 46.7348 37.5037 46.3582 37.6627 45.9588C37.8217 45.5612 37.9406 45.1567 38.0227 44.752Z" fill="#11B5E4"/>
<path fill-rule="evenodd" clip-rule="evenodd" d="M33.8305 45.7899L37.0901 47.0857C37.3121 46.7351 37.5043 46.3584 37.6634 45.9591C37.8224 45.5615 37.9412 45.157 38.0234 44.7523L34.2621 43.2578C34.2185 44.1419 34.0699 44.9929 33.8305 45.7899Z" fill="#0DA0CA"/>
</g>
<defs>
<clipPath id="clip0_1_357">
<rect width="30.5753" height="30.5753" fill="white" transform="translate(20.7123 19.7266)"/>
</clipPath>
</defs>
</svg>
