<svg width="24" height="24" viewBox="0 0 24 24" fill="none" xmlns="http://www.w3.org/2000/svg">
<g clip-path="url(#clip0)">
<path d="M2.00121 0.105587C2.12311 0.0358582 2.26121 -0.000555316 2.40164 6.4017e-06C2.54207 0.00056812 2.67988 0.0380853 2.80121 0.108787L15.35 7.42879L11.4668 10.9232L1.59961 2.04319V0.799987C1.59949 0.659133 1.63657 0.520745 1.70709 0.398814C1.7776 0.276884 1.87906 0.175732 2.00121 0.105587V0.105587Z" fill="white"/>
<path d="M1.59961 4.19678V19.8032L10.2716 12L1.59961 4.19678Z" fill="white"/>
<path d="M1.59961 21.9567V23.1999C1.59957 23.3406 1.63667 23.4789 1.70716 23.6007C1.77766 23.7226 1.87905 23.8237 2.00111 23.8938C2.12317 23.9639 2.26156 24.0006 2.40233 24.0001C2.54309 23.9996 2.68123 23.962 2.80281 23.8911L15.35 16.5711L11.4668 13.0767L1.59961 21.9567Z" fill="white"/>
<path d="M16.8013 15.7245L22.0013 12.6909C22.1222 12.6205 22.2224 12.5196 22.2921 12.3983C22.3618 12.277 22.3985 12.1396 22.3985 11.9997C22.3985 11.8598 22.3618 11.7224 22.2921 11.6011C22.2224 11.4798 22.1222 11.3789 22.0013 11.3085L16.8013 8.2749L12.6621 11.9997L16.8013 15.7245Z" fill="white"/>
</g>
<defs>
<clipPath id="clip0">
<rect width="24" height="24" fill="white"/>
</clipPath>
</defs>
</svg>
